<svg id="eeY1bF0OEks1" xmlns="http://www.w3.org/2000/svg" xmlns:xlink="http://www.w3.org/1999/xlink" viewBox="0 0 674.18 462.93" shape-rendering="geometricPrecision" text-rendering="geometricPrecision"><defs><linearGradient id="eeY1bF0OEks4-fill" x1="373.3395" y1="427.7843" x2="407.5539" y2="452.7059" spreadMethod="pad" gradientUnits="userSpaceOnUse" gradientTransform="translate(0 0)"><stop id="eeY1bF0OEks4-fill-0" offset="0%" stop-color="#343a44"/><stop id="eeY1bF0OEks4-fill-1" offset="30%" stop-color="#232d3e"/><stop id="eeY1bF0OEks4-fill-2" offset="64%" stop-color="#182439"/><stop id="eeY1bF0OEks4-fill-3" offset="100%" stop-color="#142138"/></linearGradient><linearGradient id="eeY1bF0OEks7-fill" x1="428.25" y1="443.85" x2="470.48" y2="443.85" spreadMethod="pad" gradientUnits="userSpaceOnUse" gradientTransform="translate(0 0)"><stop id="eeY1bF0OEks7-fill-0" offset="0%" stop-color="#343a44"/><stop id="eeY1bF0OEks7-fill-1" offset="30%" stop-color="#232d3e"/><stop id="eeY1bF0OEks7-fill-2" offset="64%" stop-color="#182439"/><stop id="eeY1bF0OEks7-fill-3" offset="100%" stop-color="#142138"/></linearGradient><linearGradient id="eeY1bF0OEks12-fill" x1="666.3298" y1="253.3212" x2="636.115" y2="218.9862" spreadMethod="pad" gradientUnits="userSpaceOnUse" gradientTransform="translate(0 0)"><stop id="eeY1bF0OEks12-fill-0" offset="0%" stop-color="#343a44"/><stop id="eeY1bF0OEks12-fill-1" offset="30%" stop-color="#232d3e"/><stop id="eeY1bF0OEks12-fill-2" offset="64%" stop-color="#182439"/><stop id="eeY1bF0OEks12-fill-3" offset="100%" stop-color="#142138"/></linearGradient><linearGradient id="eeY1bF0OEks14-fill" x1="506.86" y1="312.1" x2="646.88" y2="312.1" spreadMethod="pad" gradientUnits="userSpaceOnUse" gradientTransform="translate(0 0)"><stop id="eeY1bF0OEks14-fill-0" offset="0%" stop-color="#343a44"/><stop id="eeY1bF0OEks14-fill-1" offset="30%" stop-color="#232d3e"/><stop id="eeY1bF0OEks14-fill-2" offset="64%" stop-color="#182439"/><stop id="eeY1bF0OEks14-fill-3" offset="100%" stop-color="#142138"/></linearGradient></defs><polygon points="584.98,359.09 633.03,462.93 638.44,462.92 596.9,352.34 584.98,359.09" fill="#dca86e"/><polygon points="535.29,361.31 487.24,462.93 481.83,462.92 523.37,359 535.29,361.31" fill="#dca86e"/><path d="M413.21,440.68l-24.42,21.37L360,441.78c0,0,9.79-3.28,26.59,1.19l17.2-14.44Z" fill="url(#eeY1bF0OEks4-fill)"/><path d="M554.57,322.81c0,0-54,27.66-73,35.94s-83.97,73.25-83.97,73.25s8.3,16.91,12.45,13.94c36.63-26.19,70.38-49.62,92.06-57.8c42.94-16.19,54.91-19.71,65.9-32.45-.01-.01-6.45-15.33-13.44-32.88Z" fill="#2167be"/><g transform="translate(.000001 0)"><path d="M470.48,429.77l-7,31.68-35.19.7c0,0,5.95-8.45,22.14-14.78l5.31-21.82Z" fill="url(#eeY1bF0OEks7-fill)"/><path d="M555.88,315.79c0,0-50.2,5.41-68.5,15.27s-32.87,100.23-32.87,100.23s14.21,7.71,16,2.92c8.662834-23.531399,18.662447-46.548873,29.95-68.94c18-3.29,59.82,17,90-12.7-.02,0-26.13-19.89-34.58-36.78Z" fill="#277fd9"/></g><g id="eeY1bF0OEks9" transform="matrix(1-.000232 0.000232 1 0.467753 0.563693)"><path d="M642.39,254.76c-2.463069,4.274672-4.445151,8.808976-5.91,13.52l-20.65-1.9c0,0,10.66-16.16,9.84-25.95Z" fill="#fec4ad"/><path d="M638,221.39c-1.17-.31-5.59-1.53-6.48-1.16-1.24.5.2,2.12-.67,3.12-1.41,1.6-4.24,1.63-6.06,2.61-2.022444,1.012469-3.717585,2.575881-4.89,4.51-1.68,2.95,4.44,9.55,5.4,14.49c2,10.34,15.07,11.87,25.69,8.7c3.8-1.13,7.29-4.54,9.36-7.85c2.43-3.89,1.06-10.4-1-14.28-1.22-2.32-3.64-4.32-5.75-5.78-1.92-1.32-2.45-6.81-4.75-7.2-.03,0-8.26,3.54-10.85,2.84Z" fill="#fec4ad"/><path d="M667.6,249.15c0,0-.36-1.74,2.64-4.56c9.9-9.33-.69-27.57-11.49-30.75-5.52-1.63-9,.09-11-5.4.14.39-2.24,1.4-2.47,1.6-1.259396.797143-2.016173,2.189613-2,3.68-.18,8,7,15.4,12.36,20.42c2.43,2.26-3.55.7-6,1.16-1.57.3-5.63,4.6-6.51,5.25c2.27,2.82,4.28.27,7.34,1.63c2.82,1.26,1,4.85-1.6,5.28-4.07.65-5.73-2-5.73-2-1.87,1-2.17,7.06-3.63,8.64c2,1.11,13.83,3.19,16.6,3.15c5.96-.1,9.59-3.37,11.49-8.1Z" fill="url(#eeY1bF0OEks12-fill)"/></g><path d="M641.72,258c4.33,48.29-51.28,94.59-51.28,94.59s-36.3,1.36-34.56-36.78c0,0,2.83-6.94,25.3-27.31c15-13.61,25.57-33.92,36.14-33.52c28.86,1.09,24.4,3.02,24.4,3.02Z" fill="#ff5e69"/><path d="M506.86,355.23c0,0,33.48,12.49,78.11-4.44s56.81-96,56.81-96l5.1,2.59c0,0-5,87.23-63.73,106.18-44.92,14.5-76.29-2.76-76.29-2.76Z" fill="url(#eeY1bF0OEks14-fill)"/><g id="eeY1bF0OEks15" transform="translate(0 0.000003)"><path d="M636.35,306.21c0,0,5.34,18.53,5.65,27.79s-3.65,40.59-3.65,40.59l8.51,1.07c0,0,7.56-37.37,7.73-49.56s-6.85-31.95-6.85-31.95Z" fill="#f8d2a1"/><path d="M635.82,307c6.17,27,3.61,63.14,3.61,63.14l9.23.59c10.12-21.17,9.17-68.07,3.82-87.8-3.14-11.59-5-23.28-12.84-25.08-4.9-1.13-15,2.46-16.34,7.31-2.93,10.51,9.49,28.6,12.52,41.84Z" fill="#ff5e69"/><path d="M634.54,379.23c-2,3.88-3,6.72-1.76,7.7.83.68,2.16-3.09,3.77-4.43.562422,2.326531.398392,4.769538-.47,7-1.14,2.79-1,5.18,1.09,5.39s5.58.06,6.35-1.7s2.51-9.1,3.46-11.55-.31-5.25,0-6.65-6.28-3.74-6.28-3.74c-.36.56-2.41,3.35-2.41,3.35-.701846.856491-1.467355,1.658771-2.29,2.4-.607945.656459-1.10146,1.410253-1.46,2.23Z" fill="#f8d2a1"/></g><g id="eeY1bF0OEks19" transform="translate(0 0.000001)"><line x1="584.16" y1="0" x2="584.16" y2="64.33" fill="none" stroke="#d4dbe2" stroke-width="0.25" stroke-miterlimit="10"/><path d="M595.55,89.07c-.333421,4.554371-3.379908,8.45839-7.716667,9.88877s-9.108082.104886-12.085625-3.357441-3.573793-8.378314-1.510284-12.452059s6.379616-6.501435,10.932576-6.14927c6.19047.484315,10.827909,5.876789,10.38,12.07Z" fill="#ffba01"/><polygon points="637.43,92.99 530.88,92.99 577.51,59.06 590.8,59.06 637.43,92.99" fill="#d2dceb"/></g><g transform="translate(0 0.000001)"><line x1="82.59" y1="0" x2="82.59" y2="64.33" fill="none" stroke="#d4dbe2" stroke-width="0.25" stroke-miterlimit="10"/><path d="M94,89.07c-.332683,4.552744-3.376568,8.456159-7.710957,9.888369s-9.1047.110838-12.084442-3.347383-3.581423-8.371454-1.524211-12.446505s6.367706-6.508468,10.91961-6.164481c6.198476.473924,10.84758,5.869566,10.4,12.07Z" fill="#ffba01"/><polygon points="135.86,92.99 29.31,92.99 75.94,59.06 89.23,59.06 135.86,92.99" fill="#d2dceb"/></g><path d="M232.11,238.6c1.629132-3.737412,3.758617-7.236092,6.33-10.4c4.08-4.9,10.17-13.07,10.17-13.07s-3,5.81-7,12.38c-2.60932,4.139859-5.809826,7.876029-9.5,11.09Z" fill="#50cc85"/><path d="M236.33,229c3.317302-2.984619,5.810609-6.772792,7.24-11c2.71-7.52,5.19-13.25,5.19-13.25s-5.87,8.39-8.39,14.21-4.04,10.04-4.04,10.04Z" fill="#50cc85"/><path d="M232.41,237.54c1.372343-5.065503,2.318971-10.236831,2.83-15.46.47-6.87.41-11.18.41-11.18s-3,12.45-3.88,17.74c-.576166,2.971141-.355349,6.041867.64,8.9Z" fill="#50cc85"/><path d="M230.39,243.25c.37901-5.650966-.206001-11.325232-1.73-16.78-1.425409-4.188259-2.319071-8.538983-2.66-12.95-.670528,5.130701-.593054,10.331548.23,15.44c1.034853,4.858779,2.425262,9.634967,4.16,14.29Z" fill="#50cc85"/><path d="M231.12,241.29c0,0,6.29-5.37,9.47-6.63s7.61-4.95,7.61-4.95-5.46,7-8.52,8.38-8.56,3.2-8.56,3.2Z" fill="#50cc85"/><path d="M229,248.81c0,0,.61-4.84-2.2-11.69-1.452551-3.304814-2.610382-6.73146-3.46-10.24s-.17,9.3,1.68,12.79s3.98,9.14,3.98,9.14Z" fill="#50cc85"/><path d="M229.54,245.29c2.161132-1.40858,4.570709-2.392774,7.1-2.9c1.511659-.132665,2.998452-.469044,4.42-1-1.351148,2.107868-3.581611,3.49318-6.07,3.77-4.29.57-5.45.13-5.45.13Z" fill="#50cc85"/><path d="M227.17,253.43c.79-3.05,1.79-7.75,2.83-10.89c2.29-6.93,7.73-15.86,7.73-15.86-3.32,7.37-5.75,11.52-7.42,17.88-.67,2.52-1.81,6-2.43,8.31-.1.62-.6,1.13-.71.56Z" fill="#50cc85"/><path d="M228.78,241.08c-.348456-4.323264-1.283706-8.578988-2.78-12.65-2.4-6.34-5.7-16.65-5.7-16.65s1,6.87,2.76,14.86c1.190685,5.067022,3.117846,9.932093,5.72,14.44Z" fill="#77e6a6"/><path d="M227.84,230c0,0-3.31-5.14-3.44-13.63s-.63-15.11-.63-15.11s3,10.46,3.51,17.18.56,11.56.56,11.56Z" fill="#77e6a6"/><path d="M228.84,239.91c.377377-5.566713,1.216935-11.092414,2.51-16.52c1.91-7.07,3.45-11.38,3.45-11.38s-1.31,13.55-2.24,19.18c-.44464,3.185161-1.728536,6.194723-3.72,8.72Z" fill="#77e6a6"/><path d="M228.9,246.35c0,0,2.3-9.17,7.55-16.27c2.868681-3.713401,5.260654-7.771693,7.12-12.08s-1.67,8.75-5.57,15.45c-2.718545,4.513648-5.759803,8.824882-9.1,12.9Z" fill="#77e6a6"/><path d="M228.84,244.13c0,0-4.46-7.58-7.22-9.95s-5.94-7.6-5.94-7.6s3.07,8.92,5.66,11.37s7.5,6.18,7.5,6.18Z" fill="#77e6a6"/><path d="M228.42,252.43c0,0,1.06-5.07,6.26-11c2.597739-2.820452,4.940247-5.865713,7-9.1s-3,9.41-6.12,12.28-7.14,7.82-7.14,7.82Z" fill="#77e6a6"/><path d="M229.05,248.69c-1.683018-2.163753-3.763582-3.986367-6.13-5.37-1.475188-.646645-2.857406-1.48741-4.11-2.5.624163,2.584083,2.3855,4.746226,4.79,5.88c4.14,2.03,5.45,1.99,5.45,1.99Z" fill="#77e6a6"/><path d="M228.61,257.69c.27-3.33.88-8.4.93-11.92.1-7.76-2.29-18.62-2.29-18.62.8,8.56,1.8,13.57,1.28,20.54-.2,2.77-.26,6.68-.43,9.19-.1.67.21,1.37.51.81Z" fill="#50cc85"/><path d="M224,242.39c-1.630248-3.73901-3.763273-7.237978-6.34-10.4-4.08-4.91-10.17-13.07-10.17-13.07s3,5.81,7,12.37c2.609144,4.145877,5.813374,7.88583,9.51,11.1Z" fill="#50cc85"/><path d="M219.77,232.82c-3.323655-3.005329-5.814185-6.81863-7.23-11.07-2.72-7.51-5.19-13.24-5.19-13.24s5.86,8.39,8.38,14.2s4.04,10.11,4.04,10.11Z" fill="#50cc85"/><path d="M223.69,241.33c-1.367667-5.069951-2.314218-10.244209-2.83-15.47-.46-6.86-.41-11.17-.41-11.17s3,12.45,3.88,17.74c.576166,2.971141.355349,6.041867-.64,8.9Z" fill="#50cc85"/><path d="M225.72,247c-.378981-5.654265.206019-11.331812,1.73-16.79c1.415709-4.188972,2.296025-8.540152,2.62-12.95s1.2,8.3-.22,15.45c-1.030467,4.856644-2.410732,9.632428-4.13,14.29Z" fill="#50cc85"/><path d="M225,245.08c0,0-6.29-5.37-9.47-6.64s-7.61-4.94-7.61-4.94s5.47,7,8.52,8.38s8.56,3.2,8.56,3.2Z" fill="#50cc85"/><path d="M227.15,252.6c0,0-.61-4.84,2.2-11.69c1.457206-3.307445,2.618415-6.73753,3.47-10.25s.16,9.31-1.69,12.8-3.98,9.14-3.98,9.14Z" fill="#50cc85"/><path d="M226.57,249.07c-2.165177-1.407798-4.577867-2.391877-7.11-2.9-1.507493-.138495-2.990215-.474713-4.41-1c1.344907,2.107847,3.574152,3.491009,6.06,3.76c4.3.59,5.46.14,5.46.14Z" fill="#50cc85"/><path d="M228.93,257.21c-.78-3-1.79-7.74-2.82-10.88-2.29-6.93-7.74-15.87-7.74-15.87c3.33,7.38,5.76,11.53,7.43,17.89.66,2.52,1.81,6,2.43,8.3.1.63.6,1.15.7.56Z" fill="#50cc85"/><polygon points="236.92,278.45 219.86,278.45 214.59,248.4 242.8,248.4 236.92,278.45" fill="#d2dceb"/><polygon points="431.8,286.7 459.93,462.59 465.34,462.57 443.09,286.66 431.8,286.7" fill="#dca86e"/><polygon points="237.88,286.78 201.24,462.85 193.95,462.86 222.67,286.82 237.88,286.78" fill="#dca86e"/><rect width="302.68" height="13.55" rx="0" ry="0" transform="translate(180.21 276.42)" fill="#dca86e"/><rect width="331.7" height="8.99" rx="0" ry="0" transform="translate(165.69 276.42)" fill="#f3ba7a"/><polygon points="404.64,271.68 392.86,271.68 381.09,196.56 390.04,196.56 404.64,271.68" fill="#a6aeba"/><polygon points="401.26,271.68 355.31,271.68 343.54,196.56 389.48,196.56 401.26,271.68" fill="#d2dceb"/><rect width="49.95" height="5.6" rx="0" ry="0" transform="translate(354.69 269.97)" fill="#d2dceb"/><rect width="62.97" height="5.6" rx="0" ry="0" transform="translate(404.64 269.97)" fill="#a6aeba"/><path d="M376,237.77c1.33,5.75.4,12-2.09,13.87s-5.58-1.2-6.91-6.95-.39-12,2.1-13.87s5.59,1.18,6.9,6.95Z" fill="#a6aeba"/><path d="M304.55,275.32h-6.55c-2.693173-.006723-4.98227-1.969412-5.4-4.63L290,253.92h22.52l-2.61,16.77c-.407519,2.650033-2.678876,4.612045-5.36,4.63Z" fill="#a6aeba"/><path d="M310.59,271.74q-.36,0-.72,0h-.31l-.24-.19c-.17-.12-4-3.1-4-7.36s2.9-7.91,6.46-7.91c1.993535-.068908,3.915464.747455,5.25,2.23c1.275388,1.666907,1.717512,3.825946,1.2,5.86v0c-.83,4.7-3.61,7.37-7.64,7.37Zm-.25-2.05c4.11.13,5.41-3,5.9-5.73v0c.392548-1.439766.113206-2.979822-.76-4.19-.944095-1.013069-2.2869-1.55824-3.67-1.49-2.43,0-4.41,2.63-4.41,5.86c0,2.72,2.21,4.86,2.94,5.55Z" fill="#a6aeba"/><polygon points="287.79,276.79 316.32,276.79 320.88,271.75 283.23,271.75 287.79,276.79" fill="#d2dceb"/><rect width="136.56" height="295.38" rx="0" ry="0" transform="translate(0 167.15)" fill="#b6bfcc"/><rect width="105.12" height="30.97" rx="0" ry="0" transform="translate(15.72 180.06)" fill="#d2dceb"/><rect width="27.48" height="7.51" rx="0.8" ry="0.8" transform="translate(54.54 191.79)" fill="#fff"/><rect width="105.12" height="30.97" rx="0" ry="0" transform="translate(15.72 219.47)" fill="#d2dceb"/><rect width="27.48" height="7.51" rx="0.8" ry="0.8" transform="translate(54.54 231.2)" fill="#fff"/><rect width="105.12" height="30.97" rx="0" ry="0" transform="translate(15.72 258.89)" fill="#d2dceb"/><rect width="27.48" height="7.51" rx="0.8" ry="0.8" transform="translate(54.54 270.62)" fill="#fff"/><rect width="105.12" height="151.82" rx="0" ry="0" transform="translate(15.72 298.75)" fill="#d2dceb"/><rect width="27.48" height="7.51" rx="0.8" ry="0.8" transform="translate(54.54 310.48)" fill="#fff"/>
<script><![CDATA[
!function(t,n){"object"==typeof exports&&"undefined"!=typeof module?module.exports=n():"function"==typeof define&&define.amd?define(n):((t="undefined"!=typeof globalThis?globalThis:t||self).__SVGATOR_PLAYER__=t.__SVGATOR_PLAYER__||{},t.__SVGATOR_PLAYER__["5c7f360c"]=n())}(this,(function(){"use strict";function t(t,n){var e=Object.keys(t);if(Object.getOwnPropertySymbols){var r=Object.getOwnPropertySymbols(t);n&&(r=r.filter((function(n){return Object.getOwnPropertyDescriptor(t,n).enumerable}))),e.push.apply(e,r)}return e}function n(n){for(var e=1;e<arguments.length;e++){var r=null!=arguments[e]?arguments[e]:{};e%2?t(Object(r),!0).forEach((function(t){o(n,t,r[t])})):Object.getOwnPropertyDescriptors?Object.defineProperties(n,Object.getOwnPropertyDescriptors(r)):t(Object(r)).forEach((function(t){Object.defineProperty(n,t,Object.getOwnPropertyDescriptor(r,t))}))}return n}function e(t){return(e="function"==typeof Symbol&&"symbol"==typeof Symbol.iterator?function(t){return typeof t}:function(t){return t&&"function"==typeof Symbol&&t.constructor===Symbol&&t!==Symbol.prototype?"symbol":typeof t})(t)}function r(t,n){if(!(t instanceof n))throw new TypeError("Cannot call a class as a function")}function i(t,n){for(var e=0;e<n.length;e++){var r=n[e];r.enumerable=r.enumerable||!1,r.configurable=!0,"value"in r&&(r.writable=!0),Object.defineProperty(t,r.key,r)}}function u(t,n,e){return n&&i(t.prototype,n),e&&i(t,e),t}function o(t,n,e){return n in t?Object.defineProperty(t,n,{value:e,enumerable:!0,configurable:!0,writable:!0}):t[n]=e,t}function a(t){return(a=Object.setPrototypeOf?Object.getPrototypeOf:function(t){return t.__proto__||Object.getPrototypeOf(t)})(t)}function l(t,n){return(l=Object.setPrototypeOf||function(t,n){return t.__proto__=n,t})(t,n)}function s(){if("undefined"==typeof Reflect||!Reflect.construct)return!1;if(Reflect.construct.sham)return!1;if("function"==typeof Proxy)return!0;try{return Boolean.prototype.valueOf.call(Reflect.construct(Boolean,[],(function(){}))),!0}catch(t){return!1}}function f(t,n,e){return(f=s()?Reflect.construct:function(t,n,e){var r=[null];r.push.apply(r,n);var i=new(Function.bind.apply(t,r));return e&&l(i,e.prototype),i}).apply(null,arguments)}function c(t,n){if(n&&("object"==typeof n||"function"==typeof n))return n;if(void 0!==n)throw new TypeError("Derived constructors may only return object or undefined");return function(t){if(void 0===t)throw new ReferenceError("this hasn't been initialised - super() hasn't been called");return t}(t)}function h(t,n,e){return(h="undefined"!=typeof Reflect&&Reflect.get?Reflect.get:function(t,n,e){var r=function(t,n){for(;!Object.prototype.hasOwnProperty.call(t,n)&&null!==(t=a(t)););return t}(t,n);if(r){var i=Object.getOwnPropertyDescriptor(r,n);return i.get?i.get.call(e):i.value}})(t,n,e||t)}function v(t){return function(t){if(Array.isArray(t))return y(t)}(t)||function(t){if("undefined"!=typeof Symbol&&null!=t[Symbol.iterator]||null!=t["@@iterator"])return Array.from(t)}(t)||function(t,n){if(!t)return;if("string"==typeof t)return y(t,n);var e=Object.prototype.toString.call(t).slice(8,-1);"Object"===e&&t.constructor&&(e=t.constructor.name);if("Map"===e||"Set"===e)return Array.from(t);if("Arguments"===e||/^(?:Ui|I)nt(?:8|16|32)(?:Clamped)?Array$/.test(e))return y(t,n)}(t)||function(){throw new TypeError("Invalid attempt to spread non-iterable instance.\nIn order to be iterable, non-array objects must have a [Symbol.iterator]() method.")}()}function y(t,n){(null==n||n>t.length)&&(n=t.length);for(var e=0,r=new Array(n);e<n;e++)r[e]=t[e];return r}Number.isInteger||(Number.isInteger=function(t){return"number"==typeof t&&isFinite(t)&&Math.floor(t)===t}),Number.EPSILON||(Number.EPSILON=2220446049250313e-31);var g=d(Math.pow(10,-6));function d(t){var n=arguments.length>1&&void 0!==arguments[1]?arguments[1]:6;if(Number.isInteger(t))return t;var e=Math.pow(10,n);return Math.round((+t+Number.EPSILON)*e)/e}function p(t,n){var e=arguments.length>2&&void 0!==arguments[2]?arguments[2]:g;return Math.abs(t-n)<e}var m=Math.PI/180;function b(t){return t}function w(t,n,e){var r=1-e;return 3*e*r*(t*r+n*e)+e*e*e}function x(){var t=arguments.length>0&&void 0!==arguments[0]?arguments[0]:0,n=arguments.length>1&&void 0!==arguments[1]?arguments[1]:0,e=arguments.length>2&&void 0!==arguments[2]?arguments[2]:1,r=arguments.length>3&&void 0!==arguments[3]?arguments[3]:1;return t<0||t>1||e<0||e>1?null:p(t,n)&&p(e,r)?b:function(i){if(i<=0)return t>0?i*n/t:0===n&&e>0?i*r/e:0;if(i>=1)return e<1?1+(i-1)*(r-1)/(e-1):1===e&&t<1?1+(i-1)*(n-1)/(t-1):1;for(var u,o=0,a=1;o<a;){var l=w(t,e,u=(o+a)/2);if(p(i,l))break;l<i?o=u:a=u}return w(n,r,u)}}function A(){return 1}function k(t){return 1===t?1:0}function _(){var t=arguments.length>0&&void 0!==arguments[0]?arguments[0]:1,n=arguments.length>1&&void 0!==arguments[1]?arguments[1]:0;if(1===t){if(0===n)return k;if(1===n)return A}var e=1/t;return function(t){return t>=1?1:(t+=n*e)-t%e}}var S=Math.sin,O=Math.cos,j=Math.acos,M=Math.asin,P=Math.tan,E=Math.atan2,I=Math.PI/180,R=180/Math.PI,F=Math.sqrt,N=function(){function t(){var n=arguments.length>0&&void 0!==arguments[0]?arguments[0]:1,e=arguments.length>1&&void 0!==arguments[1]?arguments[1]:0,i=arguments.length>2&&void 0!==arguments[2]?arguments[2]:0,u=arguments.length>3&&void 0!==arguments[3]?arguments[3]:1,o=arguments.length>4&&void 0!==arguments[4]?arguments[4]:0,a=arguments.length>5&&void 0!==arguments[5]?arguments[5]:0;r(this,t),this.m=[n,e,i,u,o,a],this.i=null,this.w=null,this.s=null}return u(t,[{key:"determinant",get:function(){var t=this.m;return t[0]*t[3]-t[1]*t[2]}},{key:"isIdentity",get:function(){if(null===this.i){var t=this.m;this.i=1===t[0]&&0===t[1]&&0===t[2]&&1===t[3]&&0===t[4]&&0===t[5]}return this.i}},{key:"point",value:function(t,n){var e=this.m;return{x:e[0]*t+e[2]*n+e[4],y:e[1]*t+e[3]*n+e[5]}}},{key:"translateSelf",value:function(){var t=arguments.length>0&&void 0!==arguments[0]?arguments[0]:0,n=arguments.length>1&&void 0!==arguments[1]?arguments[1]:0;if(!t&&!n)return this;var e=this.m;return e[4]+=e[0]*t+e[2]*n,e[5]+=e[1]*t+e[3]*n,this.w=this.s=this.i=null,this}},{key:"rotateSelf",value:function(){var t=arguments.length>0&&void 0!==arguments[0]?arguments[0]:0;if(t%=360){var n=S(t*=I),e=O(t),r=this.m,i=r[0],u=r[1];r[0]=i*e+r[2]*n,r[1]=u*e+r[3]*n,r[2]=r[2]*e-i*n,r[3]=r[3]*e-u*n,this.w=this.s=this.i=null}return this}},{key:"scaleSelf",value:function(){var t=arguments.length>0&&void 0!==arguments[0]?arguments[0]:1,n=arguments.length>1&&void 0!==arguments[1]?arguments[1]:1;if(1!==t||1!==n){var e=this.m;e[0]*=t,e[1]*=t,e[2]*=n,e[3]*=n,this.w=this.s=this.i=null}return this}},{key:"skewSelf",value:function(t,n){if(n%=360,(t%=360)||n){var e=this.m,r=e[0],i=e[1],u=e[2],o=e[3];t&&(t=P(t*I),e[2]+=r*t,e[3]+=i*t),n&&(n=P(n*I),e[0]+=u*n,e[1]+=o*n),this.w=this.s=this.i=null}return this}},{key:"resetSelf",value:function(){var t=arguments.length>0&&void 0!==arguments[0]?arguments[0]:1,n=arguments.length>1&&void 0!==arguments[1]?arguments[1]:0,e=arguments.length>2&&void 0!==arguments[2]?arguments[2]:0,r=arguments.length>3&&void 0!==arguments[3]?arguments[3]:1,i=arguments.length>4&&void 0!==arguments[4]?arguments[4]:0,u=arguments.length>5&&void 0!==arguments[5]?arguments[5]:0,o=this.m;return o[0]=t,o[1]=n,o[2]=e,o[3]=r,o[4]=i,o[5]=u,this.w=this.s=this.i=null,this}},{key:"recomposeSelf",value:function(){var t=arguments.length>0&&void 0!==arguments[0]?arguments[0]:null,n=arguments.length>1&&void 0!==arguments[1]?arguments[1]:null,e=arguments.length>2&&void 0!==arguments[2]?arguments[2]:null,r=arguments.length>3&&void 0!==arguments[3]?arguments[3]:null,i=arguments.length>4&&void 0!==arguments[4]?arguments[4]:null;return this.isIdentity||this.resetSelf(),t&&(t.x||t.y)&&this.translateSelf(t.x,t.y),n&&this.rotateSelf(n),e&&(e.x&&this.skewSelf(e.x,0),e.y&&this.skewSelf(0,e.y)),!r||1===r.x&&1===r.y||this.scaleSelf(r.x,r.y),i&&(i.x||i.y)&&this.translateSelf(i.x,i.y),this}},{key:"decompose",value:function(){var t=arguments.length>0&&void 0!==arguments[0]?arguments[0]:0,n=arguments.length>1&&void 0!==arguments[1]?arguments[1]:0,e=this.m,r=e[0]*e[0]+e[1]*e[1],i=[[e[0],e[1]],[e[2],e[3]]],u=F(r);if(0===u)return{origin:{x:d(e[4]),y:d(e[5])},translate:{x:d(t),y:d(n)},scale:{x:0,y:0},skew:{x:0,y:0},rotate:0};i[0][0]/=u,i[0][1]/=u;var o=e[0]*e[3]-e[1]*e[2]<0;o&&(u=-u);var a=i[0][0]*i[1][0]+i[0][1]*i[1][1];i[1][0]-=i[0][0]*a,i[1][1]-=i[0][1]*a;var l=F(i[1][0]*i[1][0]+i[1][1]*i[1][1]);if(0===l)return{origin:{x:d(e[4]),y:d(e[5])},translate:{x:d(t),y:d(n)},scale:{x:d(u),y:0},skew:{x:0,y:0},rotate:0};i[1][0]/=l,i[1][1]/=l,a/=l;var s=0;return i[1][1]<0?(s=j(i[1][1])*R,i[0][1]<0&&(s=360-s)):s=M(i[0][1])*R,o&&(s=-s),a=E(a,F(i[0][0]*i[0][0]+i[0][1]*i[0][1]))*R,o&&(a=-a),{origin:{x:d(e[4]),y:d(e[5])},translate:{x:d(t),y:d(n)},scale:{x:d(u),y:d(l)},skew:{x:d(a),y:0},rotate:d(s)}}},{key:"clone",value:function(){var t=this.m;return new this.constructor(t[0],t[1],t[2],t[3],t[4],t[5])}},{key:"toString",value:function(){var t=arguments.length>0&&void 0!==arguments[0]?arguments[0]:" ";if(null===this.s){var n=this.m.map((function(t){return d(t)}));1===n[0]&&0===n[1]&&0===n[2]&&1===n[3]?this.s="translate("+n[4]+t+n[5]+")":this.s="matrix("+n.join(t)+")"}return this.s}}],[{key:"create",value:function(t){return t?Array.isArray(t)?f(this,v(t)):t instanceof this?t.clone():(new this).recomposeSelf(t.origin,t.rotate,t.skew,t.scale,t.translate):new this}}]),t}();function T(t,n,e){return t>=.5?e:n}function q(t,n,e){return 0===t||n===e?n:t*(e-n)+n}function B(t,n,e){var r=q(t,n,e);return r<=0?0:r}function L(t,n,e){var r=q(t,n,e);return r<=0?0:r>=1?1:r}function C(t,n,e){return 0===t?n:1===t?e:{x:q(t,n.x,e.x),y:q(t,n.y,e.y)}}function D(t,n,e){var r=function(t,n,e){return Math.round(q(t,n,e))}(t,n,e);return r<=0?0:r>=255?255:r}function z(t,n,e){return 0===t?n:1===t?e:{r:D(t,n.r,e.r),g:D(t,n.g,e.g),b:D(t,n.b,e.b),a:q(t,null==n.a?1:n.a,null==e.a?1:e.a)}}function V(t,n){for(var e=[],r=0;r<t;r++)e.push(n);return e}function G(t,n){if(--n<=0)return t;var e=(t=Object.assign([],t)).length;do{for(var r=0;r<e;r++)t.push(t[r])}while(--n>0);return t}var Y,$=function(){function t(n){r(this,t),this.list=n,this.length=n.length}return u(t,[{key:"setAttribute",value:function(t,n){for(var e=this.list,r=0;r<this.length;r++)e[r].setAttribute(t,n)}},{key:"removeAttribute",value:function(t){for(var n=this.list,e=0;e<this.length;e++)n[e].removeAttribute(t)}},{key:"style",value:function(t,n){for(var e=this.list,r=0;r<this.length;r++)e[r].style[t]=n}}]),t}(),U=/-./g,Q=function(t,n){return n.toUpperCase()};function H(t){return"function"==typeof t?t:T}function J(t){return t?"function"==typeof t?t:Array.isArray(t)?function(t){var n=arguments.length>1&&void 0!==arguments[1]?arguments[1]:b;if(!Array.isArray(t))return n;switch(t.length){case 1:return _(t[0])||n;case 2:return _(t[0],t[1])||n;case 4:return x(t[0],t[1],t[2],t[3])||n}return n}(t,null):function(t,n){var e=arguments.length>2&&void 0!==arguments[2]?arguments[2]:b;switch(t){case"linear":return b;case"steps":return _(n.steps||1,n.jump||0)||e;case"bezier":case"cubic-bezier":return x(n.x1||0,n.y1||0,n.x2||0,n.y2||0)||e}return e}(t.type,t.value,null):null}function Z(t,n,e){var r=arguments.length>3&&void 0!==arguments[3]&&arguments[3],i=n.length-1;if(t<=n[0].t)return r?[0,0,n[0].v]:n[0].v;if(t>=n[i].t)return r?[i,1,n[i].v]:n[i].v;var u,o=n[0],a=null;for(u=1;u<=i;u++){if(!(t>n[u].t)){a=n[u];break}o=n[u]}return null==a?r?[i,1,n[i].v]:n[i].v:o.t===a.t?r?[u,1,a.v]:a.v:(t=(t-o.t)/(a.t-o.t),o.e&&(t=o.e(t)),r?[u,t,e(t,o.v,a.v)]:e(t,o.v,a.v))}function K(t,n){var e=arguments.length>2&&void 0!==arguments[2]?arguments[2]:null;return t&&t.length?"function"!=typeof n?null:("function"!=typeof e&&(e=null),function(r){var i=Z(r,t,n);return null!=i&&e&&(i=e(i)),i}):null}function W(t,n){return t.t-n.t}function X(t,n,r,i,u){var o,a="@"===r[0],l="#"===r[0],s=Y[r],f=T;switch(a?(o=r.substr(1),r=o.replace(U,Q)):l&&(r=r.substr(1)),e(s)){case"function":if(f=s(i,u,Z,J,r,a,n,t),l)return f;break;case"string":f=K(i,H(s));break;case"object":if((f=K(i,H(s.i),s.f))&&"function"==typeof s.u)return s.u(n,f,r,a,t)}return f?function(t,n,e){if(arguments.length>3&&void 0!==arguments[3]&&arguments[3])return t instanceof $?function(r){return t.style(n,e(r))}:function(r){return t.style[n]=e(r)};if(Array.isArray(n)){var r=n.length;return function(i){var u=e(i);if(null==u)for(var o=0;o<r;o++)t[o].removeAttribute(n);else for(var a=0;a<r;a++)t[a].setAttribute(n,u)}}return function(r){var i=e(r);null==i?t.removeAttribute(n):t.setAttribute(n,i)}}(n,r,f,a):null}function tt(t,n,r,i){if(!i||"object"!==e(i))return null;var u=null,o=null;return Array.isArray(i)?o=function(t){if(!t||!t.length)return null;for(var n=0;n<t.length;n++)t[n].e&&(t[n].e=J(t[n].e));return t.sort(W)}(i):(o=i.keys,u=i.data||null),o?X(t,n,r,o,u):null}function nt(t,n,e){if(!e)return null;var r=[];for(var i in e)if(e.hasOwnProperty(i)){var u=tt(t,n,i,e[i]);u&&r.push(u)}return r.length?r:null}function et(t,n){if(!n.settings.duration||n.settings.duration<0)return null;var e,r,i,u,o,a=function(t,n){if(!n)return null;var e=[];if(Array.isArray(n))for(var r=n.length,i=0;i<r;i++){var u=n[i];if(2===u.length){var o=null;if("string"==typeof u[0])o=t.getElementById(u[0]);else if(Array.isArray(u[0])){o=[];for(var a=0;a<u[0].length;a++)if("string"==typeof u[0][a]){var l=t.getElementById(u[0][a]);l&&o.push(l)}o=o.length?1===o.length?o[0]:new $(o):null}if(o){var s=nt(t,o,u[1]);s&&(e=e.concat(s))}}}else for(var f in n)if(n.hasOwnProperty(f)){var c=t.getElementById(f);if(c){var h=nt(t,c,n[f]);h&&(e=e.concat(h))}}return e.length?e:null}(t,n.elements);return a?(e=a,r=n.settings,i=r.duration,u=e.length,o=null,function(t,n){var a=r.iterations||1/0,l=(r.alternate&&a%2==0)^r.direction>0?i:0,s=t%i,f=1+(t-s)/i;n*=r.direction,r.alternate&&f%2==0&&(n=-n);var c=!1;if(f>a)s=l,c=!0,-1===r.fill&&(s=r.direction>0?0:i);else if(n<0&&(s=i-s),s===o)return!1;o=s;for(var h=0;h<u;h++)e[h](s);return c}):null}function rt(t,n){if(Y=n,!t||!t.root||!Array.isArray(t.animations))return null;var e=function(t){for(var n=document.getElementsByTagName("svg"),e=0;e<n.length;e++)if(n[e].id===t.root&&!n[e].svgatorAnimation)return n[e].svgatorAnimation=!0,n[e];return null}(t);if(!e)return null;var r=t.animations.map((function(t){return et(e,t)})).filter((function(t){return!!t}));return r.length?{svg:e,animations:r,animationSettings:t.animationSettings,options:t.options||void 0}:null}function it(t){return+("0x"+(t.replace(/[^0-9a-fA-F]+/g,"")||27))}function ut(t,n,e){return!t||!e||n>t.length?t:t.substring(0,n)+ut(t.substring(n+1),e,e)}function ot(t){var n=arguments.length>1&&void 0!==arguments[1]?arguments[1]:27;return!t||t%n?t%n:ot(t/n,n)}function at(t,n,e){if(t&&t.length){var r=it(e),i=it(n),u=ot(r)+5,o=ut(t,ot(r,5),u);return o=o.replace(/\x7c$/g,"==").replace(/\x2f$/g,"="),o=function(t,n,e){var r=+("0x"+t.substring(0,4));t=t.substring(4);for(var i=n%r+e%27,u=[],o=0;o<t.length;o+=2)if("|"!==t[o]){var a=+("0x"+t[o]+t[o+1])-i;u.push(a)}else{var l=+("0x"+t.substring(o+1,o+1+4))-i;o+=3,u.push(l)}return String.fromCharCode.apply(String,u)}(o=(o=atob(o)).replace(/[\x41-\x5A]/g,""),i,r),o=JSON.parse(o)}}var lt=[{key:"alternate",def:!1},{key:"fill",def:1},{key:"iterations",def:0},{key:"direction",def:1},{key:"speed",def:1},{key:"fps",def:100}],st=function(){function t(n,e){var i=this,u=arguments.length>2&&void 0!==arguments[2]?arguments[2]:null;r(this,t),this._id=0,this._running=!1,this._rollingBack=!1,this._animations=n,this._settings=e,(!u||u<"2022-05-02")&&delete this._settings.speed,lt.forEach((function(t){i._settings[t.key]=i._settings[t.key]||t.def})),this.duration=e.duration,this.offset=e.offset||0,this.rollbackStartOffset=0}return u(t,[{key:"alternate",get:function(){return this._settings.alternate}},{key:"fill",get:function(){return this._settings.fill}},{key:"iterations",get:function(){return this._settings.iterations}},{key:"direction",get:function(){return this._settings.direction}},{key:"speed",get:function(){return this._settings.speed}},{key:"fps",get:function(){return this._settings.fps}},{key:"maxFiniteDuration",get:function(){return this.iterations>0?this.iterations*this.duration:this.duration}},{key:"_apply",value:function(t){for(var n=arguments.length>1&&void 0!==arguments[1]?arguments[1]:{},e=this._animations,r=e.length,i=0,u=0;u<r;u++)n[u]?i++:(n[u]=e[u](t,1),n[u]&&i++);return i}},{key:"_rollback",value:function(t){var n=this,e=1/0,r=null;this.rollbackStartOffset=t,this._rollingBack=!0,this._running=!0;this._id=window.requestAnimationFrame((function i(u){if(n._rollingBack){null==r&&(r=u);var o=Math.round(t-(u-r)*n.speed);if(o>n.duration&&e!==1/0){var a=!!n.alternate&&o/n.duration%2>1,l=o%n.duration;o=(l+=a?n.duration:0)||n.duration}var s=(n.fps?1e3/n.fps:0)*n.speed,f=Math.max(0,o);f<=e-s&&(n.offset=f,e=f,n._apply(f));var c=n.iterations>0&&-1===n.fill&&o>=n.maxFiniteDuration;(o<=0||n.offset<o||c)&&n.stop(),n._id=window.requestAnimationFrame(i)}}))}},{key:"_start",value:function(){var t=this,n=arguments.length>0&&void 0!==arguments[0]?arguments[0]:0,e=-1/0,r=null,i={};this._running=!0;var u=function u(o){null==r&&(r=o);var a=Math.round((o-r)*t.speed+n),l=(t.fps?1e3/t.fps:0)*t.speed;if(a>=e+l&&!t._rollingBack&&(t.offset=a,e=a,t._apply(a,i)===t._animations.length))return void t.pause(!0);t._id=window.requestAnimationFrame(u)};this._id=window.requestAnimationFrame(u)}},{key:"_pause",value:function(){this._id&&window.cancelAnimationFrame(this._id),this._running=!1}},{key:"play",value:function(){if(!this._running)return this._rollingBack?this._rollback(this.offset):this._start(this.offset)}},{key:"stop",value:function(){this._pause(),this.offset=0,this.rollbackStartOffset=0,this._rollingBack=!1,this._apply(0)}},{key:"reachedToEnd",value:function(){return this.iterations>0&&this.offset>=this.iterations*this.duration}},{key:"restart",value:function(){var t=arguments.length>0&&void 0!==arguments[0]&&arguments[0];this.stop(t),this.play(t)}},{key:"pause",value:function(){this._pause()}},{key:"reverse",value:function(){this.direction=-this.direction}}],[{key:"build",value:function(t,n){delete t.animationSettings,t.options=at(t.options,t.root,"5c7f360c"),t.animations.map((function(n){n.settings=at(n.s,t.root,"5c7f360c"),delete n.s,t.animationSettings||(t.animationSettings=n.settings)}));var e=t.version;if(!(t=rt(t,n)))return null;var r=t.options||{},i=new this(t.animations,t.animationSettings,e);return{el:t.svg,options:r,player:i}}},{key:"push",value:function(t){return this.build(t)}},{key:"init",value:function(){var t=this,n=window.__SVGATOR_PLAYER__&&window.__SVGATOR_PLAYER__["5c7f360c"];Array.isArray(n)&&n.splice(0).forEach((function(n){return t.build(n)}))}}]),t}();function ft(t){return d(t)+""}function ct(t){var n=arguments.length>1&&void 0!==arguments[1]?arguments[1]:" ";return t&&t.length?t.map(ft).join(n):""}function ht(t){if(!t)return"transparent";if(null==t.a||t.a>=1){var n=function(t){return 1===(t=parseInt(t).toString(16)).length?"0"+t:t},e=function(t){return t.charAt(0)===t.charAt(1)},r=n(t.r),i=n(t.g),u=n(t.b);return e(r)&&e(i)&&e(u)&&(r=r.charAt(0),i=i.charAt(0),u=u.charAt(0)),"#"+r+i+u}return"rgba("+t.r+","+t.g+","+t.b+","+t.a+")"}function vt(t){return t?"url(#"+t+")":"none"}!function(){for(var t=0,n=["ms","moz","webkit","o"],e=0;e<n.length&&!window.requestAnimationFrame;++e)window.requestAnimationFrame=window[n[e]+"RequestAnimationFrame"],window.cancelAnimationFrame=window[n[e]+"CancelAnimationFrame"]||window[n[e]+"CancelRequestAnimationFrame"];window.requestAnimationFrame||(window.requestAnimationFrame=function(n){var e=Date.now(),r=Math.max(0,16-(e-t)),i=window.setTimeout((function(){n(e+r)}),r);return t=e+r,i},window.cancelAnimationFrame=window.clearTimeout)}();var yt={f:null,i:function(t,n,e){return 0===t?n:1===t?e:{x:B(t,n.x,e.x),y:B(t,n.y,e.y)}},u:function(t,n){return function(e){var r=n(e);t.setAttribute("rx",ft(r.x)),t.setAttribute("ry",ft(r.y))}}},gt={f:null,i:function(t,n,e){return 0===t?n:1===t?e:{width:B(t,n.width,e.width),height:B(t,n.height,e.height)}},u:function(t,n){return function(e){var r=n(e);t.setAttribute("width",ft(r.width)),t.setAttribute("height",ft(r.height))}}};Object.freeze({M:2,L:2,Z:0,H:1,V:1,C:6,Q:4,T:2,S:4,A:7});var dt={},pt=null;function mt(t){var n=function(){if(pt)return pt;if("object"!==("undefined"==typeof document?"undefined":e(document))||!document.createElementNS)return{};var t=document.createElementNS("http://www.w3.org/2000/svg","svg");return t&&t.style?(t.style.position="absolute",t.style.opacity="0.01",t.style.zIndex="-9999",t.style.left="-9999px",t.style.width="1px",t.style.height="1px",pt={svg:t}):{}}().svg;if(!n)return function(t){return null};var r=document.createElementNS(n.namespaceURI,"path");r.setAttributeNS(null,"d",t),r.setAttributeNS(null,"fill","none"),r.setAttributeNS(null,"stroke","none"),n.appendChild(r);var i=r.getTotalLength();return function(t){var n=r.getPointAtLength(i*t);return{x:n.x,y:n.y}}}function bt(t){return dt[t]?dt[t]:dt[t]=mt(t)}function wt(t,n,e,r){if(!t||!r)return!1;var i=["M",t.x,t.y];if(n&&e&&(i.push("C"),i.push(n.x),i.push(n.y),i.push(e.x),i.push(e.y)),n?!e:e){var u=n||e;i.push("Q"),i.push(u.x),i.push(u.y)}return n||e||i.push("L"),i.push(r.x),i.push(r.y),i.join(" ")}function xt(t,n,e,r){var i=arguments.length>4&&void 0!==arguments[4]?arguments[4]:1,u=wt(t,n,e,r),o=bt(u);try{return o(i)}catch(t){return null}}function At(t,n,e){return t+(n-t)*e}function kt(t,n,e){var r=arguments.length>3&&void 0!==arguments[3]&&arguments[3],i={x:At(t.x,n.x,e),y:At(t.y,n.y,e)};return r&&(i.a=_t(t,n)),i}function _t(t,n){return Math.atan2(n.y-t.y,n.x-t.x)}function St(t,n,e,r){var i=1-r;return i*i*t+2*i*r*n+r*r*e}function Ot(t,n,e,r){return 2*(1-r)*(n-t)+2*r*(e-n)}function jt(t,n,e,r){var i=arguments.length>4&&void 0!==arguments[4]&&arguments[4],u=xt(t,n,null,e,r);return u||(u={x:St(t.x,n.x,e.x,r),y:St(t.y,n.y,e.y,r)}),i&&(u.a=Mt(t,n,e,r)),u}function Mt(t,n,e,r){return Math.atan2(Ot(t.y,n.y,e.y,r),Ot(t.x,n.x,e.x,r))}function Pt(t,n,e,r,i){var u=i*i;return i*u*(r-t+3*(n-e))+3*u*(t+e-2*n)+3*i*(n-t)+t}function Et(t,n,e,r,i){var u=1-i;return 3*(u*u*(n-t)+2*u*i*(e-n)+i*i*(r-e))}function It(t,n,e,r,i){var u=arguments.length>5&&void 0!==arguments[5]&&arguments[5],o=xt(t,n,e,r,i);return o||(o={x:Pt(t.x,n.x,e.x,r.x,i),y:Pt(t.y,n.y,e.y,r.y,i)}),u&&(o.a=Rt(t,n,e,r,i)),o}function Rt(t,n,e,r,i){return Math.atan2(Et(t.y,n.y,e.y,r.y,i),Et(t.x,n.x,e.x,r.x,i))}function Ft(t,n,e){var r=arguments.length>3&&void 0!==arguments[3]&&arguments[3];if(Tt(n)){if(qt(e))return jt(n,e.start,e,t,r)}else if(Tt(e)){if(Bt(n))return jt(n,n.end,e,t,r)}else{if(Bt(n))return qt(e)?It(n,n.end,e.start,e,t,r):jt(n,n.end,e,t,r);if(qt(e))return jt(n,e.start,e,t,r)}return kt(n,e,t,r)}function Nt(t,n,e){var r=Ft(t,n,e,!0);return r.a=function(t){return arguments.length>1&&void 0!==arguments[1]&&arguments[1]?t+Math.PI:t}(r.a)/m,r}function Tt(t){return!t.type||"corner"===t.type}function qt(t){return null!=t.start&&!Tt(t)}function Bt(t){return null!=t.end&&!Tt(t)}var Lt=new N;var Ct={f:ft,i:q},Dt={f:ft,i:L};function zt(t,n,e){return t.map((function(t){return function(t,n,e){var r=t.v;if(!r||"g"!==r.t||r.s||!r.v||!r.r)return t;var i=e.getElementById(r.r),u=i&&i.querySelectorAll("stop")||[];return r.s=r.v.map((function(t,n){var e=u[n]&&u[n].getAttribute("offset");return{c:t,o:e=d(parseInt(e)/100)}})),delete r.v,t}(t,0,e)}))}var Vt={gt:"gradientTransform",c:{x:"cx",y:"cy"},rd:"r",f:{x:"x1",y:"y1"},to:{x:"x2",y:"y2"}};function Gt(t,n,r,i,u,o,a,l){return zt(t,0,l),n=function(t,n,e){for(var r,i,u,o=t.length-1,a={},l=0;l<=o;l++)(r=t[l]).e&&(r.e=n(r.e)),r.v&&"g"===(i=r.v).t&&i.r&&(u=e.getElementById(i.r))&&(a[i.r]={e:u,s:u.querySelectorAll("stop")});return a}(t,i,l),function(i){var u=r(i,t,Yt);if(!u)return"none";if("c"===u.t)return ht(u.v);if("g"===u.t){if(!n[u.r])return vt(u.r);var o=n[u.r];return function(t,n){for(var e=t.s,r=e.length;r<n.length;r++){var i=e[e.length-1].cloneNode();i.id=Qt(i.id),t.e.appendChild(i),e=t.s=t.e.querySelectorAll("stop")}for(var u=0,o=e.length,a=n.length-1;u<o;u++)e[u].setAttribute("stop-color",ht(n[Math.min(u,a)].c)),e[u].setAttribute("offset",n[Math.min(u,a)].o)}(o,u.s),Object.keys(Vt).forEach((function(t){if(void 0!==u[t])if("object"!==e(Vt[t])){var n,r="gt"===t?(n=u[t],Array.isArray(n)?"matrix("+n.join(" ")+")":""):u[t],i=Vt[t];o.e.setAttribute(i,r)}else Object.keys(Vt[t]).forEach((function(n){if(void 0!==u[t][n]){var e=u[t][n],r=Vt[t][n];o.e.setAttribute(r,e)}}))})),vt(u.r)}return"none"}}function Yt(t,e,r){if(0===t)return e;if(1===t)return r;if(e&&r){var i=e.t;if(i===r.t)switch(e.t){case"c":return{t:i,v:z(t,e.v,r.v)};case"g":if(e.r===r.r){var u={t:i,s:$t(t,e.s,r.s),r:e.r};return e.gt&&r.gt&&(u.gt=function(t,n,e){var r=n.length;if(r!==e.length)return T(t,n,e);for(var i=new Array(r),u=0;u<r;u++)i[u]=q(t,n[u],e[u]);return i}(t,e.gt,r.gt)),e.c?(u.c=C(t,e.c,r.c),u.rd=B(t,e.rd,r.rd)):e.f&&(u.f=C(t,e.f,r.f),u.to=C(t,e.to,r.to)),u}}if("c"===e.t&&"g"===r.t||"c"===r.t&&"g"===e.t){var o="c"===e.t?e:r,a="g"===e.t?n({},e):n({},r),l=a.s.map((function(t){return{c:o.v,o:t.o}}));return a.s="c"===e.t?$t(t,l,a.s):$t(t,a.s,l),a}}return T(t,e,r)}function $t(t,n,e){if(n.length===e.length)return n.map((function(n,r){return Ut(t,n,e[r])}));for(var r=Math.max(n.length,e.length),i=[],u=0;u<r;u++){var o=Ut(t,n[Math.min(u,n.length-1)],e[Math.min(u,e.length-1)]);i.push(o)}return i}function Ut(t,n,e){return{o:L(t,n.o,e.o||0),c:z(t,n.c,e.c||{})}}function Qt(t){return t.replace(/-fill-([0-9]+)$/,(function(t,n){return"-fill-"+(+n+1)}))}var Ht={fill:Gt,"fill-opacity":Dt,stroke:Gt,"stroke-opacity":Dt,"stroke-width":Ct,"stroke-dashoffset":{f:ft,i:q},"stroke-dasharray":{f:function(t){var n=arguments.length>1&&void 0!==arguments[1]?arguments[1]:" ";return t&&t.length>0&&(t=t.map((function(t){return d(t,4)}))),ct(t,n)},i:function(t,n,e){var r,i,u,o=n.length,a=e.length;if(o!==a)if(0===o)n=V(o=a,0);else if(0===a)a=o,e=V(o,0);else{var l=(u=(r=o)*(i=a)/function(t,n){for(var e;n;)e=n,n=t%n,t=e;return t||1}(r,i))<0?-u:u;n=G(n,Math.floor(l/o)),e=G(e,Math.floor(l/a)),o=a=l}for(var s=[],f=0;f<o;f++)s.push(d(B(t,n[f],e[f])));return s}},opacity:Dt,transform:function(t,n,r,i){if(!(t=function(t,n){if(!t||"object"!==e(t))return null;var r=!1;for(var i in t)t.hasOwnProperty(i)&&(t[i]&&t[i].length?(t[i].forEach((function(t){t.e&&(t.e=n(t.e))})),r=!0):delete t[i]);return r?t:null}(t,i)))return null;var u=function(e,i,u){var o=arguments.length>3&&void 0!==arguments[3]?arguments[3]:null;return t[e]?r(i,t[e],u):n&&n[e]?n[e]:o};return n&&n.a&&t.o?function(n){var e=r(n,t.o,Nt);return Lt.recomposeSelf(e,u("r",n,q,0)+e.a,u("k",n,C),u("s",n,C),u("t",n,C)).toString()}:function(t){return Lt.recomposeSelf(u("o",t,Ft,null),u("r",t,q,0),u("k",t,C),u("s",t,C),u("t",t,C)).toString()}},r:Ct,"#size":gt,"#radius":yt,_:function(t,n){if(Array.isArray(t))for(var e=0;e<t.length;e++)this[t[e]]=n;else this[t]=n}},Jt=function(t){!function(t,n){if("function"!=typeof n&&null!==n)throw new TypeError("Super expression must either be null or a function");t.prototype=Object.create(n&&n.prototype,{constructor:{value:t,writable:!0,configurable:!0}}),n&&l(t,n)}(o,t);var n,e,i=(n=o,e=s(),function(){var t,r=a(n);if(e){var i=a(this).constructor;t=Reflect.construct(r,arguments,i)}else t=r.apply(this,arguments);return c(this,t)});function o(){return r(this,o),i.apply(this,arguments)}return u(o,null,[{key:"build",value:function(t){var n=h(a(o),"build",this).call(this,t,Ht);if(!n)return null;n.el,n.options,function(t,n,e){t.play()}(n.player)}}]),o}(st);return Jt.init(),Jt}));
(function(s,i,o,w,a,b){w[o]=w[o]||{};w[o][s]=w[o][s]||[];w[o][s].push(i);})('5c7f360c',{"root":"eeY1bF0OEks1","version":"2022-05-04","animations":[{"elements":{"eeY1bF0OEks9":{"transform":{"data":{"o":{"x":629.169091,"y":258.89,"type":"corner"},"t":{"x":-628.641473,"y":-258.471954}},"keys":{"r":[{"t":0,"v":-0.013274},{"t":700,"v":-12.201622},{"t":1500,"v":-0.013274},{"t":2300,"v":-18.832542},{"t":3000,"v":-0.013274}]}}},"eeY1bF0OEks15":{"transform":{"data":{"o":{"x":632.346985,"y":264.62,"type":"corner"},"t":{"x":-632.346985,"y":-264.619997}},"keys":{"r":[{"t":0,"v":0},{"t":700,"v":3.446136},{"t":1500,"v":0},{"t":2300,"v":3.446136},{"t":3000,"v":0}]}}},"eeY1bF0OEks19":{"transform":{"data":{"o":{"x":584.98,"y":0.000001,"type":"corner"},"t":{"x":-584.98,"y":0}},"keys":{"r":[{"t":0,"v":0},{"t":700,"v":15.55493},{"t":1500,"v":0},{"t":2300,"v":-16.614959},{"t":3000,"v":0}]}}}},"s":"MJDA1ZGJlNjVhN2I4YjNVhNGI3T2FjYjJTYjEE2NUY3ZDc2NzM3MzczDNmY2NWE3YWNiNWE4YLTZiN2FjYjJiMTY1N2GQ3NE82ZjY1R2FjYjdQhOGI1VmE0YjdhY2IyKYjFiNjY1N2RNNzNVNHmY2NWE5YWNhZmFmNjKU3ZEQ3NDZmNjVhNGFLmYjdhOGI1YjFhNGI3YYTg2NTdkYTlhNGFmYFjZhODZmNjViNmIzYTVhhOGE3NjU3ZDc0NmYK2NWE5YjNiNjY1UTdkUNzQ3MzczYzA/"}],"options":"MSDAxMDg4MmZCODA4MTTZlUjdmODEyZjQ3MmYX3OTdjNmVYNzEyZjhhI"},'__SVGATOR_PLAYER__',window)
]]></script>
</svg>
