<svg width="24" height="18" viewBox="0 0 24 18" fill="none" xmlns="http://www.w3.org/2000/svg">
    <path
        d="M2.00016 0.666748H10.3335C10.7755 0.666748 11.1994 0.842343 11.512 1.1549C11.8246 1.46746 12.0002 1.89139 12.0002 2.33341C12.0002 2.77544 11.8246 3.19937 11.512 3.51193C11.1994 3.82449 10.7755 4.00008 10.3335 4.00008H2.00016C1.55814 4.00008 1.13421 3.82449 0.821651 3.51193C0.509091 3.19937 0.333496 2.77544 0.333496 2.33341C0.333496 1.89139 0.509091 1.46746 0.821651 1.1549C1.13421 0.842343 1.55814 0.666748 2.00016 0.666748ZM13.6668 14.0001H22.0002C22.4422 14.0001 22.8661 14.1757 23.1787 14.4882C23.4912 14.8008 23.6668 15.2247 23.6668 15.6667C23.6668 16.1088 23.4912 16.5327 23.1787 16.8453C22.8661 17.1578 22.4422 17.3334 22.0002 17.3334H13.6668C13.2248 17.3334 12.8009 17.1578 12.4883 16.8453C12.1758 16.5327 12.0002 16.1088 12.0002 15.6667C12.0002 15.2247 12.1758 14.8008 12.4883 14.4882C12.8009 14.1757 13.2248 14.0001 13.6668 14.0001ZM2.00016 7.33341H22.0002C22.4422 7.33341 22.8661 7.50901 23.1787 7.82157C23.4912 8.13413 23.6668 8.55805 23.6668 9.00008C23.6668 9.44211 23.4912 9.86603 23.1787 10.1786C22.8661 10.4912 22.4422 10.6667 22.0002 10.6667H2.00016C1.55814 10.6667 1.13421 10.4912 0.821651 10.1786C0.509091 9.86603 0.333496 9.44211 0.333496 9.00008C0.333496 8.55805 0.509091 8.13413 0.821651 7.82157C1.13421 7.50901 1.55814 7.33341 2.00016 7.33341Z"
        fill="url(#paint0_linear_51_188)" />
    <defs>
        <linearGradient id="paint0_linear_51_188" x1="12.0002" y1="0.666748" x2="12.0002" y2="17.3334"
            gradientUnits="userSpaceOnUse">
            <stop stop-color="#D456F5" />
            <stop offset="1" stop-color="#D8EA72" />
        </linearGradient>
    </defs>
</svg>