<svg id="Layer_1" data-name="Layer 1" xmlns="http://www.w3.org/2000/svg" viewBox="0 0 3873 3873"><defs><style>.cls-1{fill:#e75151;}.cls-2{fill:#fffffe;fill-rule:evenodd;}</style></defs><g id="Layer_1-2" data-name="Layer_1"><circle class="cls-1" cx="1936.5" cy="1936.5" r="1936.5"/><g id="_468753232" data-name=" 468753232"><path id="_468753928" data-name=" 468753928" class="cls-2" d="M2370.8,2787.4H1502.1a110.66,110.66,0,0,1-110.5-110.5V2228a21.6,21.6,0,1,1,43.2,0v449a67.39,67.39,0,0,0,67.3,67.3h868.7a67.39,67.39,0,0,0,67.3-67.3V1829.5a21.6,21.6,0,0,1,43.2,0V2677a110.51,110.51,0,0,1-110.5,110.4Zm-957.6-962.7a21.64,21.64,0,0,1-21.6-21.6v-607a110.66,110.66,0,0,1,110.5-110.5h868.7a110.66,110.66,0,0,1,110.5,110.5v208.4a21.6,21.6,0,0,1-43.2,0V1196a67.39,67.39,0,0,0-67.3-67.3H1502.1a67.39,67.39,0,0,0-67.3,67.3v607a21.6,21.6,0,0,1-21.6,21.7Z"/><path id="_468753832" data-name=" 468753832" class="cls-2" d="M2376,2698.5a21.64,21.64,0,0,1-21.6-21.6V2036.5a21.6,21.6,0,0,1,43.2,0v640.4a21.51,21.51,0,0,1-21.6,21.6Zm-879-957.6a21.64,21.64,0,0,1-21.6-21.6c0-7.3-.1-24.7-.3-48.9-.7-91.6-2.1-282.3,0-393.8a21.6,21.6,0,1,1,43.2.8c-2,110.9-.7,301.2,0,392.7.2,24.4.3,41.9.3,49.2a21.64,21.64,0,0,1-21.6,21.6Z"/><path id="_468754144" data-name=" 468754144" class="cls-2" d="M2177.2,1322.3H1695.7c-118.7,0-215.2-96.5-215.2-215.2a21.6,21.6,0,0,1,43.2,0c0,94.8,77.2,172,172,172h481.5c94.8,0,172-77.2,172-172a21.6,21.6,0,1,1,43.2,0c0,118.7-96.5,215.2-215.2,215.2Z"/><path id="_468753976" data-name=" 468753976" class="cls-2" d="M1796.5,1225.5H1681.4a21.6,21.6,0,0,1,0-43.2h115.1a21.6,21.6,0,0,1,0,43.2Z"/><path id="_468753736" data-name=" 468753736" class="cls-2" d="M2191.6,1225.5H1911.7a21.6,21.6,0,0,1,0-43.2h279.9a21.6,21.6,0,0,1,0,43.2Z"/><path id="_468753496" data-name=" 468753496" class="cls-2" d="M1936.5,2685.4a126.2,126.2,0,1,1,126.2-126.2A126.33,126.33,0,0,1,1936.5,2685.4Zm0-209.3a83.1,83.1,0,1,0,83.1,83.1A83.22,83.22,0,0,0,1936.5,2476.1Z"/><path id="_468753568" data-name=" 468753568" class="cls-2" d="M1531.8,2372.4a21.5,21.5,0,0,1-15.5-6.6l-129.9-134.4H1125.1c-124,0-225-100.9-225-225s100.9-225,225-225h406.7c124,0,224.9,100.9,224.9,225,0,116.8-89.4,213-203.4,223.9v120.4a21.51,21.51,0,0,1-13.5,20,18.27,18.27,0,0,1-8,1.7Zm-406.7-547.7c-100.2,0-181.8,81.5-181.8,181.8s81.5,181.8,181.8,181.8h270.4a21.39,21.39,0,0,1,15.5,6.6l99.2,102.6v-87.6a21.64,21.64,0,0,1,21.6-21.6c100.2,0,181.8-81.5,181.8-181.8s-81.5-181.8-181.8-181.8Z"/><path id="_468754048" data-name=" 468754048" class="cls-2" d="M1549.5,1937.4h-442a21.6,21.6,0,1,1,0-43.2h442a21.6,21.6,0,0,1,0,43.2Z"/><path id="_468752920" data-name=" 468752920" class="cls-2" d="M1549.5,2028h-442a21.6,21.6,0,1,1,0-43.2h442a21.6,21.6,0,0,1,0,43.2Z"/><path id="_468753064" data-name=" 468753064" class="cls-2" d="M1549.5,2118.6h-442a21.6,21.6,0,0,1,0-43.2h442a21.6,21.6,0,0,1,0,43.2Z"/><path id="_468753376" data-name=" 468753376" class="cls-2" d="M2341.1,1973.8a20.89,20.89,0,0,1-8.1-1.6,21.51,21.51,0,0,1-13.5-20V1831.8c-114-10.9-203.4-107.2-203.4-223.9,0-124,100.9-225,225-225h406.7c124,0,225,100.9,225,224.9s-100.9,225-225,225H2486.5l-129.9,134.4a21.33,21.33,0,0,1-15.5,6.6Zm0-547.7c-100.2,0-181.8,81.5-181.8,181.8s81.5,181.8,181.8,181.8a21.64,21.64,0,0,1,21.6,21.6v87.6l99.2-102.6a21.73,21.73,0,0,1,15.5-6.6h270.4c100.2,0,181.8-81.5,181.8-181.8s-81.5-181.8-181.8-181.8Z"/><path id="_468752656" data-name=" 468752656" class="cls-2" d="M2765.5,1538.8h-442a21.6,21.6,0,1,1,0-43.2h442a21.6,21.6,0,0,1,0,43.2Z"/><path id="_468753184" data-name=" 468753184" class="cls-2" d="M2765.5,1629.4h-442a21.6,21.6,0,1,1,0-43.2h442a21.6,21.6,0,0,1,0,43.2Z"/><path id="_468753304" data-name=" 468753304" class="cls-2" d="M2765.5,1720h-442a21.6,21.6,0,1,1,0-43.2h442a21.6,21.6,0,0,1,0,43.2Z"/></g></g></svg>