<svg width="53" height="57" viewBox="0 0 53 57" fill="none" xmlns="http://www.w3.org/2000/svg">
    <path
        d="M36.3315 26.2338L11.5617 27.0472C10.5851 27.0811 9.64277 27.4153 8.86308 28.0043C8.0834 28.5934 7.50435 29.4085 7.20488 30.3387C6.90541 31.2688 6.9001 32.2687 7.18967 33.202C7.47924 34.1352 8.0496 34.9565 8.82299 35.5538L16.2142 41.2197C16.3879 41.3594 16.5321 41.5323 16.6383 41.7283C16.7444 41.9243 16.8105 42.1395 16.8326 42.3613L17.5414 51.6473C17.6028 52.4364 17.8605 53.1977 18.2909 53.862C18.7214 54.5262 19.3111 55.0724 20.0063 55.4508C20.7015 55.8292 21.4803 56.0278 22.2718 56.0287C23.0634 56.0296 23.8426 55.8327 24.5386 55.4558C25.187 55.0962 25.7466 54.5961 26.1767 53.9921L40.3878 33.6883C40.8908 32.966 41.1831 32.1181 41.2323 31.2394C41.2814 30.3606 41.0855 29.4854 40.6662 28.7115C40.247 27.9376 39.6209 27.2954 38.858 26.8566C38.095 26.4177 37.2251 26.1995 36.3454 26.2263L36.3315 26.2338ZM37.7849 31.8751L23.5738 52.1789C23.3844 52.4405 23.1196 52.6378 22.8149 52.7446C22.5102 52.8514 22.1801 52.8625 21.8689 52.7763C21.5577 52.6902 21.2803 52.5109 21.0738 52.2627C20.8674 52.0144 20.7418 51.7089 20.7139 51.3873L19.9912 42.1088C19.9802 41.9856 19.962 41.8632 19.9366 41.7422L29.5287 36.5458C29.8979 36.3458 30.1726 36.0073 30.2922 35.6048C30.4119 35.2022 30.3667 34.7687 30.1667 34.3994C29.9667 34.0302 29.6282 33.7556 29.2257 33.6359C28.8231 33.5163 28.3896 33.5614 28.0203 33.7615L18.4283 38.9578C18.3407 38.8705 18.2481 38.7884 18.151 38.7119L10.7737 33.0384C10.5195 32.8393 10.3322 32.5673 10.237 32.2587C10.1418 31.9502 10.1432 31.6199 10.241 31.3122C10.3389 31.0045 10.5284 30.734 10.7843 30.5371C11.0402 30.3402 11.3502 30.2262 11.6727 30.2104L36.4424 29.397C36.7338 29.3903 37.0213 29.4641 37.2734 29.6104C37.5254 29.7566 37.7322 29.9695 37.871 30.2257C38.0099 30.482 38.0753 30.7715 38.0601 31.0625C38.0448 31.3536 37.9496 31.6347 37.7849 31.8751Z"
        fill="url(#paint0_linear_21_21)" />
    <defs>
        <linearGradient id="paint0_linear_21_21" x1="19.2062" y1="22.34" x2="34.2856" y2="50.1755"
            gradientUnits="userSpaceOnUse">
            <stop stop-color="#D450FA" />
            <stop offset="1" stop-color="#D9FC67" />
        </linearGradient>
    </defs>
</svg>