<svg width="348" height="329"  viewBox="0 82.05 348 329" fill="none" xmlns="http://www.w3.org/2000/svg">
    <path
        d="M0 106.052C0 92.7972 10.745 82.052 23.9998 82.0519L323.5 82.0491C336.755 82.0489 347.5 92.7941 347.5 106.049V301.058C347.5 309.626 342.932 317.544 335.515 321.834L192.997 404.254C185.843 408.391 177.065 408.557 169.76 404.693L12.7787 321.662C4.91755 317.504 0 309.34 0 300.447V106.052Z"
        fill="url(#paint0_linear_66_71)" />
    <path
        d="M264.203 141.566L96.6332 145.319C90.0264 145.479 83.6297 147.673 78.3153 151.601C73.0009 155.529 69.0273 161.001 66.9365 167.271C64.8456 173.54 64.7391 180.301 66.6316 186.633C68.524 192.965 72.3233 198.56 77.5114 202.653L127.097 241.492C128.262 242.449 129.224 243.629 129.929 244.962C130.633 246.295 131.065 247.755 131.198 249.256L135.336 312.106C135.696 317.447 137.385 322.614 140.249 327.136C143.113 331.659 147.063 335.394 151.737 338.002C156.412 340.61 161.665 342.008 167.018 342.07C172.371 342.132 177.654 340.855 182.388 338.356C186.798 335.969 190.619 332.627 193.57 328.573L291.109 192.265C294.562 187.416 296.599 181.703 296.993 175.763C297.388 169.823 296.124 163.891 293.343 158.628C290.563 153.365 286.374 148.977 281.245 145.956C276.117 142.934 270.249 141.397 264.298 141.516L264.203 141.566ZM273.634 179.819L176.094 316.127C174.795 317.882 172.991 319.198 170.922 319.899C168.854 320.6 166.621 320.651 164.523 320.047C162.424 319.442 160.561 318.21 159.182 316.517C157.804 314.823 156.976 312.748 156.81 310.571L152.577 247.772C152.511 246.938 152.397 246.109 152.234 245.288L217.47 210.824C219.981 209.497 221.862 207.227 222.7 204.513C223.537 201.8 223.263 198.864 221.936 196.353C220.609 193.842 218.339 191.961 215.626 191.123C212.912 190.286 209.977 190.561 207.466 191.887L142.23 226.352C141.644 225.755 141.023 225.193 140.372 224.669L90.8811 185.78C89.176 184.416 87.9288 182.563 87.3067 180.47C86.6846 178.376 86.7174 176.143 87.4007 174.069C88.0839 171.995 89.385 170.179 91.1294 168.865C92.8738 167.551 94.9782 166.802 97.1603 166.719L264.73 162.966C266.701 162.941 268.64 163.46 270.335 164.467C272.029 165.474 273.413 166.928 274.333 168.671C275.254 170.414 275.676 172.376 275.552 174.343C275.429 176.31 274.765 178.205 273.634 179.819Z"
        fill="#311C54" />
    <defs>
        <linearGradient id="paint0_linear_66_71" x1="173.75" y1="82.0488" x2="173.75" y2="410.903"
            gradientUnits="userSpaceOnUse">
            <stop stop-color="#9253F9" />
            <stop offset="1" stop-color="white" />
        </linearGradient>
    </defs>
</svg>