<svg width="348" height="329" viewBox="0 0 348 329" fill="none" xmlns="http://www.w3.org/2000/svg">
<path d="M0 24.0031C0 10.7483 10.745 0.0031792 23.9998 0.00305407L323.5 0.000226578C336.755 0.000101443 347.5 10.7453 347.5 24.0002V219.009C347.5 227.577 342.932 235.496 335.515 239.785L192.997 322.205C185.843 326.342 177.065 326.508 169.76 322.645L12.7787 239.613C4.91755 235.455 0 227.291 0 218.398V24.0031Z" fill="url(#paint0_linear_65_38)"/>
<path d="M267.167 141.5V74.562C267.167 73.7168 267.001 72.8797 266.678 72.0987C266.355 71.3178 265.88 70.6083 265.282 70.011L231.572 36.3012C230.369 35.0959 228.735 34.418 227.032 34.4165H102.258C100.554 34.4165 98.9203 35.0934 97.7153 36.2983C96.5104 37.5033 95.8335 39.1375 95.8335 40.8415V242.158C95.8335 243.862 96.5104 245.496 97.7153 246.701C98.9203 247.906 100.554 248.583 102.258 248.583H170.792M138.667 120.083H224.333M138.667 77.2498H181.5M138.667 162.917H170.792M245.258 194.399L255.966 183.691C257.081 182.575 258.404 181.69 259.862 181.086C261.319 180.482 262.88 180.171 264.458 180.171C266.035 180.171 267.597 180.482 269.054 181.086C270.511 181.69 271.835 182.575 272.949 183.691C275.199 185.942 276.463 188.994 276.463 192.177C276.463 195.36 275.199 198.412 272.949 200.663L262.241 211.372L245.258 194.388L213.229 226.417C211.628 228.023 210.578 230.097 210.231 232.339L207.618 249.012L224.291 246.409C226.532 246.062 228.606 245.012 230.212 243.411L262.23 211.372" stroke="#311C54" stroke-width="13" stroke-linecap="round" stroke-linejoin="round"/>
<path d="M224.333 34.4165V70.8248C224.333 72.5289 225.01 74.1631 226.215 75.368C227.42 76.5729 229.054 77.2498 230.758 77.2498H267.167" stroke="#311C54" stroke-width="13" stroke-linecap="round" stroke-linejoin="round"/>
<defs>
<linearGradient id="paint0_linear_65_38" x1="173.75" y1="0" x2="173.75" y2="328.854" gradientUnits="userSpaceOnUse">
<stop stop-color="#9253F9"/>
<stop offset="1" stop-color="white"/>
</linearGradient>
</defs>
</svg>
