<svg width="348" height="329" viewBox="0 0 348 329" fill="none" xmlns="http://www.w3.org/2000/svg">
<path d="M0 24.0031C0 10.7483 10.745 0.0031792 23.9998 0.00305407L323.5 0.000226578C336.755 0.000101443 347.5 10.7453 347.5 24.0002V219.009C347.5 227.577 342.932 235.496 335.515 239.785L192.997 322.205C185.843 326.342 177.065 326.508 169.76 322.645L12.7787 239.613C4.91755 235.455 0 227.291 0 218.398V24.0031Z" fill="url(#paint0_linear_70_115)"/>
<path d="M179.558 40.2348C176.862 35.5778 170.138 35.5778 167.442 40.2348L61.7914 222.722C59.0896 227.389 62.4571 233.229 67.8494 233.229H279.15C284.543 233.229 287.91 227.389 285.208 222.722L179.558 40.2348Z" stroke="#311C54" stroke-width="20" stroke-linejoin="round"/>
<path d="M173.5 190.396V195.75M173.5 104.729L173.543 158.271" stroke="#311C54" stroke-width="20" stroke-linecap="round"/>
<defs>
<linearGradient id="paint0_linear_70_115" x1="173.75" y1="0" x2="173.75" y2="328.854" gradientUnits="userSpaceOnUse">
<stop stop-color="#9253F9"/>
<stop offset="1" stop-color="white"/>
</linearGradient>
</defs>
</svg>
