<svg id="efezjGad43h1" xmlns="http://www.w3.org/2000/svg" xmlns:xlink="http://www.w3.org/1999/xlink"
    viewBox="0 0 452.67 430.97" shape-rendering="geometricPrecision" text-rendering="geometricPrecision">
    <g>
        <path
            d="M400.5,135.47c0,0-7.25-5.58-17.82,12s-14.84,27.78-14.84,27.78-2.72,3.63-5.16.95-5.53-10-10.07-9c-4.71,1-6.6,6-6.26,13.66s.47,24.39.48,25.9-1,3.61-2.95,2-12.85-15.57-19.19-10-1.9,26.68-1.46,29-.07,3.26-1.19,3.75-4.34-4.57-7.6-8.43-7.71-7.77-11.1-4.25-5.5,19,7.47,45.24l6.81,11.78l13.67.21c29.26-1.32,41.78-10.62,43.22-15.29s-4.12-6.68-9.08-7.68-10.93-1.36-11.05-2.58.46-2.12,2.7-2.85s22.88-7,24.69-15.27-15.72-11-18-12-.94-2.86.37-3.58s16.06-8.69,22.91-12.08s10.36-7.48,9-12.08c-1.35-4.44-9.26-3.6-12.78-4.45s-1.66-5-1.66-5s6.92-8.68,17.17-26.4s1.64-21.44,1.64-21.44"
            fill="#ebebeb" />
        <path
            d="M391,151.15c0,0-.06.14-.19.39l-.62,1.1-2.39,4.21c-2.08,3.65-5.13,8.92-8.92,15.41-7.58,13-18.21,30.84-30,50.51s-22.46,37.52-30.11,50.46l-9,15.34c-1.07,1.8-1.89,3.2-2.46,4.17-.28.47-.5.82-.65,1.08s-.24.36-.24.36.06-.13.2-.38.35-.63.61-1.1l2.39-4.21c2.08-3.65,5.13-8.92,8.93-15.41c7.58-13,18.2-30.84,30-50.52s22.45-37.51,30.1-50.45c3.81-6.47,6.89-11.71,9-15.35l2.46-4.17.65-1.08Z"
            fill="#e0e0e0" />
        <path
            d="M356.51,177.54c.131541.300661.225581.616367.28.94.15.62.35,1.51.58,2.62.46,2.21,1,5.28,1.57,8.68s1,6.4,1.38,8.72c.18,1,.32,1.93.44,2.64.083166.326725.123504.662875.12,1-.125792-.302735-.219634-.617776-.28-.94-.15-.61-.35-1.51-.57-2.62-.44-2.22-.95-5.3-1.51-8.7s-1.06-6.38-1.44-8.7c-.18-1-.33-1.93-.45-2.64-.083166-.326725-.123504-.662875-.12-1Z"
            fill="#e0e0e0" />
        <path d="M362.11,202.44c0-.11,6.26-1.54,14-3.19s14.1-2.89,14.13-2.77-6.26,1.54-14,3.19-14.1,2.89-14.13,2.77Z"
            fill="#e0e0e0" />
        <path
            d="M342.63,231.85c.332356-.036103.667644-.036103,1,0l2.72.21c2.3.17,5.48.39,9,.5s6.69.12,9,.1h2.73c.33268-.029504.66732-.029504,1,0-.326695.084417-.66258.128083-1,.13-.64,0-1.57.11-2.73.15-2.3.1-5.49.15-9,0s-6.7-.38-9-.62c-1.14-.13-2.07-.24-2.71-.34-.340182-.00926-.678561-.052813-1.01-.13Z"
            fill="#e0e0e0" />
        <path
            d="M332.61,210.44c.191801.242646.353012.507974.48.79l1.16,2.25c1,1.9,2.26,4.54,3.68,7.46s2.68,5.59,3.57,7.53c.41.9.76,1.67,1,2.3.14459.275673.25539.567783.33.87-.191434-.2465-.352587-.515088-.48-.8l-1.16-2.24c-1-1.9-2.27-4.54-3.68-7.47s-2.68-5.59-3.57-7.52l-1-2.3c-.146766-.274688-.257672-.567077-.33-.87Z"
            fill="#e0e0e0" />
        <path
            d="M312.12,234.21c.22106.320236.421467.654248.6,1l1.49,2.87c1.25,2.43,3,5.8,4.8,9.53s3.5,7.13,4.68,9.59l1.38,2.93c.191467.348302.342449.717369.45,1.1-.22545-.317387-.426046-.651715-.6-1l-1.49-2.87c-1.25-2.43-2.95-5.8-4.8-9.53s-3.51-7.13-4.68-9.59l-1.38-2.93c-.191467-.348302-.342449-.717369-.45-1.1Z"
            fill="#e0e0e0" />
        <path
            d="M325.38,260.52c.425789-.038703.854211-.038703,1.28,0l3.46.13c2.92.11,7,.25,11.42.27s8.5,0,11.42-.12l3.46-.09c.425712-.040365.854288-.040365,1.28,0-.418244.086357-.843146.136543-1.27.15-.81.06-2,.14-3.46.22-2.92.15-7,.28-11.44.25s-8.51-.21-11.43-.4c-1.46-.09-2.64-.19-3.45-.27-.426823-.006164-.852084-.053043-1.27-.14Z"
            fill="#e0e0e0" />
        <rect width="5.75" height="255.52" rx="0" ry="0"
            transform="matrix(.999985-.00541 0.00541 0.999985 31.813815 169.011756)" fill="#e0e0e0" />
        <rect width="5.75" height="255.52" rx="0" ry="0"
            transform="matrix(.999985-.00541 0.00541 0.999985 45.583181 168.937261)" fill="#e0e0e0" />
        <rect width="5.75" height="255.52" rx="0" ry="0"
            transform="matrix(.999985-.00541 0.00541 0.999985 165.857959 168.286609)" fill="#e0e0e0" />
        <rect width="5.75" height="255.52" rx="0" ry="0"
            transform="matrix(.999985-.00541 0.00541 0.999985 179.617379 168.212168)" fill="#e0e0e0" />
        <rect width="153.55" height="5.83" rx="0" ry="0"
            transform="matrix(.999985-.00541 0.00541 0.999985 31.811661 169.005386)" fill="#e0e0e0" />
        <rect width="153.55" height="1.74" rx="0" ry="0"
            transform="matrix(.999985-.00541 0.00541 0.999985 32.095466 221.473158)" fill="#e0e0e0" />
        <rect width="153.55" height="1.74" rx="0" ry="0"
            transform="matrix(.999985-.00541 0.00541 0.999985 32.372987 270.920974)" fill="#e0e0e0" />
        <rect width="153.55" height="1.74" rx="0" ry="0"
            transform="matrix(.999985-.00541 0.00541 0.999985 32.630454 320.358843)" fill="#e0e0e0" />
        <rect width="153.55" height="1.74" rx="0" ry="0"
            transform="matrix(.999985-.00541 0.00541 0.999985 32.907975 369.806659)" fill="#e0e0e0" />
        <rect width="27.2" height="28.86" rx="0" ry="0" transform="matrix(1-.01 0.01 1 96.645502 340.1886)"
            fill="#ebebeb" />
        <rect width="27.2" height="28.86" rx="0" ry="0"
            transform="matrix(.999985-.00541 0.00541 0.999985 122.149777 340.463862)" fill="#f5f5f5" />
        <path
            d="M95.11,348.52c18.07.18,36.2,0,54.27-.26.11598,0,.21-.09402.21-.21s-.09402-.21-.21-.21c-18.08-.1-36.2,0-54.27.32-.099411,0-.18.080589-.18.18s.080589.18.18.18Z"
            fill="#e0e0e0" />
        <rect width="19.92" height="21.13" rx="0" ry="0" transform="matrix(1-.01 0.01 1 95.559101 231.5246)"
            fill="#ebebeb" />
        <rect width="19.92" height="21.13" rx="0" ry="0" transform="matrix(1-.01 0.01 1 115.388001 231.3263)"
            fill="#f5f5f5" />
        <path
            d="M94.51,237.8c13.24.11,26.52,0,39.75-.18.101178-.021947.173363-.111469.173363-.215s-.072185-.193053-.173363-.215q-19.86-.1-39.75.25c-.099411,0-.18.080589-.18.18s.080589.18.18.18Z"
            fill="#e0e0e0" />
        <rect width="36.2" height="17.22" rx="0" ry="0" transform="matrix(1-.01 0.01 1 83.237301 252.4489)"
            fill="#ebebeb" />
        <rect width="36.2" height="17.22" rx="0" ry="0" transform="matrix(1-.01 0.01 1 119.255401 252.0887)"
            fill="#f5f5f5" />
        <path
            d="M82.09,257.62c24,.27,48.17,0,72.22-.36.11598,0,.21-.09402.21-.21s-.09402-.21-.21-.21c-24.05-.13-48.18-.11-72.22.42-.099411,0-.18.080589-.18.18s.080589.18.18.18Z"
            fill="#e0e0e0" />
        <rect width="9.09" height="35.45" rx="0" ry="0"
            transform="matrix(.999985-.00541 0.00541 0.999985 83.054071 185.837493)" fill="#ebebeb" />
        <rect width="9.09" height="25.78" rx="0" ry="0"
            transform="matrix(.999985-.00541 0.00541 0.999985 73.846304 195.46734)" fill="#e0e0e0" />
        <rect width="14.13" height="28.73" rx="0" ry="0"
            transform="matrix(.999985-.00541 0.00541 0.999985 92.299479 192.427462)" fill="#e0e0e0" />
        <rect width="4.49" height="28.73" rx="0" ry="0" transform="matrix(1-.01 0.01 1 107.103501 191.8672)"
            fill="#ebebeb" />
        <rect width="4.49" height="22.09" rx="0" ry="0"
            transform="matrix(.999985-.00541 0.00541 0.999985 110.724754 198.967768)" fill="#e0e0e0" />
        <rect width="9.09" height="33.24" rx="0" ry="0"
            transform="matrix(.925276 0.379295-.379295 0.925276 81.832632 286.15887)" fill="#e0e0e0" />
        <rect width="9.09" height="35.45" rx="0" ry="0"
            transform="matrix(.999985-.00541 0.00541 0.999985 89.009466 284.823855)" fill="#ebebeb" />
        <rect width="14.13" height="28.73" rx="0" ry="0"
            transform="matrix(.999985-.00541 0.00541 0.999985 102.7947 291.379263)" fill="#e0e0e0" />
        <rect width="3.09" height="39.37" rx="0" ry="0"
            transform="matrix(.999985-.00541 0.00541 0.999985 99.647454 280.766297)" fill="#ebebeb" />
        <rect width="1.55" height="33.24" rx="0" ry="0"
            transform="matrix(.999985-.00541 0.00541 0.999985 98.140693 286.904431)" fill="#f5f5f5" />
        <rect width="1.55" height="33.24" rx="0" ry="0"
            transform="matrix(-.00541-.999985 0.999985-.00541 117.205716 320.114663)" fill="#f5f5f5" />
        <rect width="36.23" height="9.19" rx="0" ry="0"
            transform="matrix(.999985-.00541 0.00541 0.999985 117.021548 309.382341)" fill="#ebebeb" />
        <rect width="29.1" height="9.19" rx="0" ry="0" transform="matrix(1-.01 0.01 1 118.360502 299.5901)"
            fill="#e0e0e0" />
        <path
            d="M224.16,39.2c1.28-6.11.51-13.06.58-19.29s.86-13.16-.25-19.3c-.113067-.357655-.444899-.60077-.82-.60077s-.706933.243115-.82.60077c-1.13,6.15-.46,13.06-.52,19.3s-1,13.19.3,19.29c.102884.336293.413321.565959.765.565959s.662116-.229666.765-.565959Z"
            fill="#e0e0e0" />
        <path d="M169.17,87.66h110.12c0,0-10.17-48.66-55.9-48.66-40.67,0-54.22,48.66-54.22,48.66Z" fill="#f5f5f5" />
    </g>
    <g>
        <path
            d="M452.67,424.58c0,.14-101.34.26-226.33.26s-226.34-.12-226.34-.26s101.32-.27,226.34-.27s226.33.12,226.33.27Z"
            fill="#263238" />
    </g>
    <g>
        <rect width="187.64" height="289.62" rx="11.55" ry="11.55" transform="translate(130.41 134.63)"
            fill="#455a64" />
        <path
            d="M230,410.78c-.282332,3.909895-3.632961,6.880183-7.5485,6.691644s-6.965281-3.467011-6.870646-7.385944s3.29907-7.046379,7.219146-7.0457c4.121818.157306,7.340678,3.617581,7.2,7.74Z"
            fill="#263238" />
        <rect width="56.51" height="3.2" rx="1.22" ry="1.22" transform="translate(195.97 142.97)" fill="#263238" />
        <rect width="175.8" height="244.35" rx="0" ry="0" transform="translate(136.81 151.25)" fill="#263238" />
    </g>
    <g>
        <polygon points="156.78,260.85 289.94,259.89 293.65,350.42 155.77,349.14 156.78,260.85" fill="#e8505b" />
        <polyline points="156.78,260.85 224.38,206.15 289.94,259.89" fill="#e8505b" />
        <g opacity="0.3">
            <polyline points="156.78,260.85 224.38,206.15 289.94,259.89" />
        </g>
        <path
            d="M155.77,349.14c-.17-.16,10.49-11.8,23.81-26s24.24-25.59,24.41-25.44-10.5,11.8-23.81,26-24.25,25.6-24.41,25.44Z"
            fill="#263238" />
        <path
            d="M293.65,350.42c-.17.15-10.55-11.25-23.19-25.47s-22.74-25.87-22.57-26s10.55,11.25,23.19,25.47s22.74,25.85,22.57,26Z"
            fill="#263238" />
        <g opacity="0.5">
            <polyline points="289.94,259.89 223.07,313.3 156.78,260.85" />
        </g>
        <polygon points="163.48,265.8 163.29,227.06 279.92,224.21 281.19,266.59 223.07,312.6 163.48,265.8"
            fill="#ebebeb" >
            <animate attributeName="points" dur="0.7s" repeatCount="1" values="163.48,265.8 163.48,261.08 281.19,260.65 281.19,266.59 223.07,312.6 163.48,265.8; 163.48,265.8 163.29,227.06 279.92,224.21 281.19,266.59 223.07,312.6 163.48,265.8"  keyTimes="0; 1"/>
            </polygon>
            
        <!-- <path stroke-dasharray="152.34"
            d="M224.69,298.69c-1.109272-.003772-2.217539-.067197-3.32-.19-15.909447-1.812762-27.33892-16.176743-25.531592-32.086809s16.167404-27.344443,32.078086-25.54255s27.349964,16.158063,25.553506,32.069359v0c-1.67389,14.64044-14.044239,25.708421-28.78,25.75Zm-.07-57c-15.048144.016137-27.392477,11.923501-27.950703,26.961297s10.86931,27.827608,25.874842,28.959383s28.222186-9.799279,29.925861-24.75068v0c.843207-7.384582-1.284252-14.801419-5.913602-20.616242s-11.380692-9.550453-18.766398-10.383758c-1.051909-.129218-2.110238-.199328-3.17-.21Z"
            fill="#0fea72">
            <animate attributeName="stroke-dashoffset" dur="2s" repeatCount="1"
                values="0; 152.34; 0"
                keyTimes="0; 0.5; 1" />
        </path> -->
        <!-- circle and tick -->
        <ellipse id="ellipse-nxys0mh1d9" rx="24.245" ry="24.245" transform="translate(224.71 269.6689)" fill="none" stroke="rgb(14,234,115)" stroke-dasharray="152.34" style="mix-blend-mode: normal; paint-order: fill;"
            stroke-dashoffset="0">
            <animate attributeName="stroke-dashoffset" dur="2s" repeatCount="1" values="152.34; 152.34; 0; 152.34; 0"
                keyTimes="0;0.39; 0.4; 0.7; 1" />
            <!-- <animate attributeName="transform" dur="2s" repeatCount="1"
                values="translate(224.71 269.6689);translate(224.71 269.6689); matrix(0.766044 -0.642788 0.642788 0.766044 224.71 269.6689) ; translate(224.71 269.6689)"
                keyTimes="0;0.35; 0.73; 1" /> -->
        </ellipse>

        <polyline points="208.71,269.69 220.26,279.74 239.546641,257.729586" fill="none" stroke="#0fea72"
            stroke-width="5" stroke-miterlimit="10">
            <animate attributeName="points" dur="2s" repeatCount="1"
                values="208.71,269.69 208.71,269.69 208.71,269.696; 208.71,269.69 208.71,269.69 208.71,269.696; 208.71,269.69 220.26,279.74 220.26,279.74; 208.71,269.69 220.26,279.74 239.546641,257.729586"
                keyTimes="0; 0.4; 0.7; 1" />
        </polyline>
    </g>
    <g>
        <path
            d="M350.16,288.55c.097404.359802.357773.653175.703457.792627s.73674.10887,1.056543-.082627c.629815-.456347.93795-1.236436.79-2-.16191-.737357-.464059-1.436714-.89-2.06.80016.447317,1.793828.351591,2.493879-.240252s.959742-1.555741.651765-2.419164-1.119065-1.445382-2.035644-1.460584c.94881-.140813,1.846624-.519202,2.61-1.1.774191-.607914,1.075706-1.641104.75-2.57-.199664-.429595-.592912-.737651-1.057817-.828653s-.945279.046045-1.292183.368653c.515249-.291284.967367-.682212,1.33-1.15.355639-.488697.383234-1.143098.07-1.66-.486766-.507758-1.24312-.648569-1.88-.35-.606498.297154-1.194261.63111-1.76,1-1.46584.776907-3.234942.71209-4.64-.17l-3.74,3.08Z"
            fill="#263238" />
        <path
            d="M330.22,271.62c-2.11896.690927-3.639438,2.555369-3.89,4.77-.12242.794741.079334,1.60536.56,2.25.681062.699464,1.687632.975027,2.63.72.917164-.261139,1.771299-.706922,2.51-1.31c1.176115-.680651,2.024539-1.810679,2.35-3.13.081609-1.366385-.725785-2.629957-2-3.13-1.246512-.47433-2.636184-.394296-3.82.22"
            fill="#263238" />
        <path
            d="M333.46,290.09c-.335857,1.324323-.893759,2.582138-1.65,3.72-.779538,1.139478-2.002788,1.898111-3.37,2.09-1.395905.155793-2.72466-.637372-3.25-1.94-.221296.791816-.851751,1.403167-1.65,1.6-.813777.174966-1.647157-.197223-2.06-.92-.377669-.747871-.126873-1.66025.58-2.11-.8.45-1.8.91-2.59.44-.341695-.213555-.594049-.544103-.71-.93-.4-1.26.38-2.58,1.25-3.58s1.89-2,2.1-3.28c.056668-1.061118-.103245-2.122667-.47-3.12-.324092-1.13871-.375479-2.337737-.15-3.5.23905-1.182603.965039-2.209878,2-2.83c1.046163-.616417,2.36074-.541411,3.33.19l.17,1.71l6.5,12.46"
            fill="#263238" />
        <path
            d="M349,309.91c0,0,2.33,24.65.37,27.86s-26,36.76-26,36.76h.06c-.47.19-1,.39-1.53.6-.834773.29792-1.713682.453419-2.6.46-1.105628.045493-2.212329-.058786-3.29-.31-1-.34-1.82.67-1.3,1.43s3.15,1.74,6.41,1.43-.41,3.3-1.72,4.64-5.17,5.69-5.07,6.42c.13,1.07,1.31,1.12,2.58-.25s5.4-5.22,6.08-4.49-6.1,7.46-6.1,7.46-1.68,1.21-.93,2.08c1.36,1.56,8-6.15,8.64-6.89.43-.53,1.19.24.7.77s-6.9,6.57-5.53,8.18c1.05,1.23,5.53-6.29,7.56-6.8s-4,5.35-2.94,6.49c.39.42.75.68,3.71-3.19c2.336497-3.375063,4.489613-6.873458,6.45-10.48c3.15-3.41,34.2-37.13,34.43-43.42.26-6.63,1.44-29.07,1.44-29.07Z"
            fill="#eb996e" />
        <path
            d="M312,419.63l-.28-9.15l17.14-.64.55,13.38-1.06.11c-4.72.44-24,1.9-27.22,1.06-3.6-.94,10.87-4.76,10.87-4.76Z"
            fill="#e8505b" />
        <g opacity="0.4">
            <path d="M304.93,421.75c0,0-5.05,1.66-4.38,2.48s20.23.07,28.83-1v-.38l-22.81,1.06c0,0-.64-2.16-1.64-2.16Z"
                fill="#fff" />
        </g>
        <path
            d="M329.61,422.82h-.29l-.85.08-3.11.25c-2.62.2-6.26.42-10.27.58s-7.66.21-10.3.22h-3.12-.84c-.099431.015085-.200569.015085-.3,0h.3.84l3.12-.06c2.64,0,6.27-.13,10.29-.28s7.64-.35,10.27-.51l3.12-.19h.84Z"
            fill="#263238" />
        <path
            d="M306.54,424.16c-.154739-.510303-.369579-1.000407-.64-1.46-.321759-.423902-.69081-.809728-1.1-1.15c1.069889.419095,1.764639,1.46122,1.74,2.61Z"
            fill="#263238" />
        <path d="M311.5,421.41c-.05,0-.3-.26-.56-.64s-.45-.72-.4-.75.3.25.57.63.44.72.39.76Z" fill="#263238" />
        <path d="M312.86,420.62c0,0-.31-.13-.62-.38s-.52-.5-.49-.54.32.13.62.38.53.5.49.54Z" fill="#263238" />
        <path
            d="M313.68,419c-.282201.114224-.585949.165418-.89.15-.300655.048793-.608483.028271-.9-.06c0-.06.39-.13.89-.15.300777-.046072.608-.02559.9.06Z"
            fill="#263238" />
        <path
            d="M313.93,417.82c-.291547.21006-.640692.325277-1,.33-.336194.059057-.682157.02446-1-.1.328787-.070193.663816-.107046,1-.11.328601-.07264.663542-.112833,1-.12Z"
            fill="#263238" />
        <path
            d="M310.86,419.93c-.363086.072468-.736914.072468-1.1,0-.39881-.034661-.793718-.104941-1.18-.21-.236784-.05745-.465289-.14482-.68-.26-.136877-.066833-.241309-.18567-.29-.33-.040421-.163383.018197-.335329.15-.44.847826-.468461,1.909491-.262026,2.52.49.180261.209164.313285.454748.39.72.022002.09879.022002.20121,0,.3-.123593-.336464-.306484-.648056-.54-.92-.268973-.287554-.616841-.489318-1-.58-.437839-.130172-.909558-.079759-1.31.14-.17.14-.1.34.1.45.202281.098954.413151.179286.63.24.375245.116954.760067.200611,1.15.25.74.14,1.16.12,1.16.15Z"
            fill="#263238" />
        <path
            d="M310.58,420c-.147563-.223968-.204738-.495548-.16-.76.026929-.290214.119238-.57056.27-.82.181082-.336064.5196-.557981.9-.59.231705.040817.390303.256687.36.49-.022938.176294-.080727.346261-.17.5-.135464.251072-.303593.48309-.5.69-.162321.203703-.371642.364983-.61.47s.21-.21.5-.57c.170411-.210389.317911-.438344.44-.68.14-.23.23-.66-.05-.7s-.55.27-.71.5c-.147192.219103-.242914.468664-.28.73-.019091.24646-.015744.494146.01.74Z"
            fill="#263238" />
        <path
            d="M329.08,418.14c0,0-.49,0-1.26.09-1.004343.15868-1.945494.591194-2.72,1.25-.76658.664377-1.331325,1.53055-1.63,2.5-.24.75-.24,1.24-.28,1.24s0-.13,0-.35c.018058-.315046.071733-.627033.16-.93.542294-2.089329,2.323371-3.623366,4.47-3.85.312066-.039855.627934-.039855.94,0c.108561.000638.216419.01749.32.05Z"
            fill="#263238" />
        <path
            d="M327,411.08c.156614,1.164089.250084,2.335804.28,3.51.096472,1.174079.11985,2.35302.07,3.53-.156278-1.167475-.249746-2.3425-.28-3.52-.096522-1.170735-.119901-2.346353-.07-3.52Z"
            fill="#263238" />
        <path
            d="M320.94,421.73c-.81188.220165-1.648816.334445-2.49.34-.837544.072302-1.680863.038704-2.51-.1c0-.06,1.12,0,2.5-.11s2.5-.19,2.5-.13Z"
            fill="#263238" />
        <path d="M324.3,421.6c.05,0-.08.24-.18.5s-.16.49-.22.49-.1-.27,0-.57.36-.47.4-.42Z" fill="#263238" />
        <path d="M325.51,420c0,0-.06.22-.23.41s-.35.31-.39.27.06-.22.23-.41.35-.34.39-.27Z" fill="#263238" />
        <path d="M327.29,419.18c0,.06-.23.07-.48.17s-.43.24-.47.2.08-.28.39-.4.58-.02.56.03Z" fill="#263238" />
        <path d="M328.57,418.79c0,.06-.07.15-.21.21s-.27.07-.3,0s.07-.14.21-.2.28-.06.3-.01Z" fill="#263238" />
        <g opacity="0.3">
            <polygon points="329.04,417.68 311.91,418.05 311.86,415.98 329.14,416.59 329.04,417.68" />
        </g>
        <path d="M376.5,357.55l-54.18-.74c0,0-15.09,1.44-15.09,21l1.92,38.67h23.08l-1.58-37.06c1.3,0,18.78.58,18.78.58Z"
            fill="#263238" />
        <path
            d="M309.15,416.52c-.054069-.219203-.080938-.444229-.08-.67c0-.49-.06-1.13-.1-1.92l-.41-7.06c-.36-6-1-14.19-1.48-23.31-.16-4.55-.51-8.91,0-12.88.130447-.96661.330975-1.922462.6-2.86.782615-2.472801,2.257505-4.669519,4.25-6.33c1.033425-.885515,2.176064-1.634951,3.4-2.23.925706-.41631,1.886027-.750916,2.87-1l1.09-.27.81-.12c.220328-.046337.444852-.069794.67-.07-.209618.080826-.427651.13785-.65.17l-.8.18-1.06.3c-.963429.298295-1.902799.669363-2.81,1.11-1.178697.613281-2.279844,1.365284-3.28,2.24-1.198599,1.073461-2.212169,2.337046-3,3.74-.411213.78267-.746092,1.603124-1,2.45-.25281.918877-.439949,1.854571-.56,2.8-.51,3.88-.15,8.24,0,12.79.45,9.1,1.06,17.33,1.33,23.31.14,3,.21,5.4.24,7.07c0,.79,0,1.43,0,1.93.001474.210389-.008541.420703-.03.63Z"
            fill="#455a64" />
        <path
            d="M412.55,419.64l-9.13.61-1.24-17.11l13.35-1l.15,1.05c.6,4.7,2.74,23.95,2,27.17-.8,3.58-5.13-10.72-5.13-10.72Z"
            fill="#e8505b" />
        <g opacity="0.4">
            <path d="M414.92,426.61c0,0,1.84,5,2.64,4.29s-.64-20.22-2-28.78l-.38.05L417,424.94c0,0-2.11.67-2.08,1.67Z"
                fill="#fff" />
        </g>
        <path
            d="M415.12,401.9c.031865.096866.048727.198036.05.3c0,.25.07.52.12.84.09.84.22,1.87.36,3.1.29,2.61.63,6.24.93,10.25s.49,7.64.59,10.27c0,1.23.07,2.27.1,3.12c0,.32,0,.6,0,.85.010519.099723.010519.200277,0,.3-.012044-.099637-.012044-.200363,0-.3c0-.25,0-.53-.05-.85-.05-.84-.1-1.88-.17-3.11-.14-2.63-.35-6.26-.65-10.27s-.62-7.63-.87-10.25c-.11-1.22-.21-2.26-.29-3.1c0-.32-.06-.6-.08-.85-.022174-.098621-.03556-.199014-.04-.3Z"
            fill="#263238" />
        <path
            d="M417.28,424.91c-.505017.173664-.988233.405205-1.44.69-.417544.334412-.790574.720884-1.11,1.15.151547-.552046.509593-1.024667,1-1.32.436003-.356486.987219-.54141,1.55-.52Z"
            fill="#263238" />
        <path d="M414.35,420.05c0,.05-.24.31-.62.59s-.7.47-.74.42.24-.31.62-.59c.213686-.191458.466063-.334699.74-.42Z"
            fill="#263238" />
        <path d="M413.52,418.72c0,0-.12.32-.36.63s-.48.54-.52.51.11-.32.35-.63.48-.54.53-.51Z" fill="#263238" />
        <path
            d="M411.84,418c.115851.282582.176935.584608.18.89.068377.296104.068377.603896,0,.9-.06,0-.14-.39-.18-.88-.069925-.299304-.069925-.610696,0-.91Z"
            fill="#263238" />
        <path
            d="M410.68,417.75c.373691.595971.482388,1.320617.3,2-.079475-.328241-.129672-.662887-.15-1-.085817-.326969-.136108-.662242-.15-1Z"
            fill="#263238" />
        <path
            d="M412.9,420.74c.088218.359639.111919.732079.07,1.1-.014264.401577-.071252.800492-.17,1.19-.047812.238633-.125069.470406-.23.69-.061436.139352-.176978.247673-.32.3-.164494.047006-.341206-.00797-.45-.14-.492651-.831608-.320073-1.896541.41-2.53.202819-.188326.44551-.328471.71-.41.18-.06.29-.07.29-.05-.332593.128315-.637948.318314-.9.56-.272913.274102-.460487.621462-.54,1-.116429.439958-.051591.908229.18,1.3.15.17.35.08.45-.12.089729-.20734.163282-.421312.22-.64.095943-.37814.166104-.762356.21-1.15.07-.68.04-1.1.07-1.1Z"
            fill="#263238" />
        <path
            d="M413,421c-.221034.155327-.491875.223037-.76.19-.289833-.014061-.571621-.099972-.82-.25-.34955-.157602-.589329-.488726-.63-.87.031208-.23546.243661-.403652.48-.38.179365.016849.353154.071371.51.16.252582.125899.487858.283871.7.47.207407.15545.375275.357577.49.59s-.21-.2-.58-.48c-.216602-.163413-.451522-.301009-.7-.41-.24-.14-.66-.21-.69.07s.28.54.52.69c.22143.13893.470601.227676.73.26.250711.013529.50215.000119.75-.04Z"
            fill="#263238" />
        <path
            d="M410.47,402.6c0,0,0,.49.13,1.26.378255,2.038551,1.896272,3.677232,3.9,4.21.75.21,1.25.2,1.25.24-.115959.018177-.234041.018177-.35,0-.312656-.015677-.623605-.0558-.93-.12-2.101721-.481686-3.690992-2.206044-4-4.34-.030949-.312569-.030949-.627431,0-.94-.04-.19-.02-.31,0-.31Z"
            fill="#263238" />
        <path
            d="M403.48,404.89c1.157149-.20643,2.326113-.340026,3.5-.4c1.16813-.138691,2.343678-.205484,3.52-.2-1.158005.200522-2.326613.334077-3.5.4-1.16813.138691-2.343678.205484-3.52.2Z"
            fill="#263238" />
        <path
            d="M414.34,410.6c.249664.804668.394197,1.638251.43,2.48.115083.836058.115083,1.683942,0,2.52-.06,0-.07-1.13-.19-2.5s-.3-2.49-.24-2.5Z"
            fill="#263238" />
        <path d="M414.09,407.25c0,0,.24.08.5.17s.5.14.5.2-.26.11-.57,0-.47-.33-.43-.37Z" fill="#263238" />
        <path d="M412.42,406.1c0,0,.23.06.42.22s.32.33.28.38-.22-.06-.42-.22-.32-.33-.28-.38Z" fill="#263238" />
        <path d="M411.57,404.35c.06,0,.07.23.18.48s.26.41.22.46-.28-.08-.41-.38-.04-.58.01-.56Z" fill="#263238" />
        <path d="M411.14,403.09c.05,0,.14.06.21.2s.08.27,0,.3-.14-.07-.21-.21-.05-.27,0-.29Z" fill="#263238" />
        <g opacity="0.3">
            <polygon points="410.01,402.65 410.98,419.76 408.92,419.88 408.92,402.6 410.01,402.65" />
        </g>
        <path
            d="M356.53,402.73v0c0,0,46.16-25.2,51.39-33.41c3.190806-4.876123,3.770761-11.012418,1.55-16.4l-38.85,5.19L343,385.79v0c-6,4.77-16.87,14.74-16.87,24.57c0,16.82,21.74,14.07,37.36,14.11c21.34,0,45.29.14,45.29.14l.06-22.93Z"
            fill="#263238" />
        <path
            d="M345.56,407.53c1.947156-.60744,3.848624-1.352655,5.69-2.23c1.898922-.747578,3.740519-1.633282,5.51-2.65-1.947156.60744-3.848624,1.352655-5.69,2.23-1.900062.744965-3.741849,1.63076-5.51,2.65Z"
            fill="#455a64" />
        <path
            d="M349.19,401.9c1.315458.270686,2.657349.391456,4,.36c1.332785.110861,2.67355.080694,4-.09-1.315216-.27232-2.657295-.393107-4-.36-1.332803-.110267-2.673505-.080101-4,.09Z"
            fill="#455a64" />
        <path
            d="M367.58,362c-.128484.172706-.272411.333368-.43.48l-1.32,1.3-4.91,4.73L344.59,384c-3.19,3-6.3,5.84-9,8.51-2.4167,2.328562-4.551343,4.933095-6.36,7.76-1.204303,1.910636-2.089231,4.004741-2.62,6.2l-.23,1c0,.29-.08.55-.11.78-.015999.213869-.056258.425225-.12.63-.024286-.212642-.024286-.427358,0-.64c0-.23,0-.49.06-.79s.11-.66.18-1.06c.459725-2.245349,1.305608-4.39389,2.5-6.35c1.787019-2.882405,3.915781-5.538321,6.34-7.91c2.69-2.71,5.78-5.52,9-8.55l16.44-15.34c2.08-1.91,3.79-3.47,5-4.61l1.38-1.23c.157021-.157544.335438-.292198.53-.4Z"
            fill="#455a64" />
        <path
            d="M353.71,311.89v0c-1.962496,1.070334-4.286907,1.257967-6.395675.516275s-3.803945-2.343085-4.664325-4.406275c-1-2.36-1.76-4.29-1.76-4.29s-6,2.12-9-3.35c-1.7-3.07-4.11-8.31-5.89-12.32-1.495727-3.391492-1.116797-7.317207,1-10.36v0c4.89-6.18,8.77-5.14,16.54-3.88l1.16.19l12.51,27.75c1.659665,3.778329.135752,8.197677-3.5,10.15Z"
            fill="#ffbe9d" />
        <path
            d="M329.81,290.7c.124648-.346742.027898-.734429-.245051-.981947s-.668223-.306012-1.001161-.148154-.537823.50091-.518941.868891.257806.688259.605153.81121c.226655.083077.477184.071617.695308-.031804s.385559-.290134.464692-.518196Z"
            fill="#263238" />
        <path
            d="M327.35,289.78c.14.05.45-.66,1.21-1.07s1.51-.32,1.54-.46-.16-.19-.49-.24c-.45227-.06271-.912609.025141-1.31.25-.396886.22846-.709125.579291-.89,1-.14.28-.13.5-.06.52Z"
            fill="#263238" />
        <path
            d="M336.38,286.24c-.185748.318314-.161161.717233.062269,1.010328s.601582.422487.957732.327705.619964-.395019.668155-.7604-.12876-.723753-.448156-.907633c-.207724-.122681-.456005-.156831-.689137-.094788s-.431596.215085-.550863.424788Z"
            fill="#263238" />
        <path
            d="M335.63,286c.14.05.45-.66,1.21-1.07s1.51-.32,1.54-.46-.16-.19-.49-.24c-.45227-.06271-.912609.025141-1.31.25-.396886.22846-.709125.579291-.89,1-.14.31-.13.52-.06.52Z"
            fill="#263238" />
        <path
            d="M336.27,294.05c-.472812.06087-.932327.1994-1.36.41-.21.08-.39.12-.46,0-.114107-.193782-.172905-.415137-.17-.64-.07-.61-.15-1.22-.23-1.87-.133253-1.606351-.431491-3.19472-.89-4.74-.023695,1.612536.110275,3.223528.4,4.81.1.64.19,1.25.27,1.86.014306.322568.133708.631608.34.88.139422.12241.328992.170732.51.13.127202-.025466.249013-.072837.36-.14.79-.36,1.26-.63,1.23-.7Z"
            fill="#263238" />
        <path d="M340.84,303.59c2.564052-1.325283,4.676713-3.382256,6.07-5.91s.44,4.87-5.31,7.34Z" fill="#eb996e" />
        <path d="M347.15,280.1c.1-.1,4.4-2.66,5.69,2c1.1,4.07-3.5,4.77-3.55,4.64s-2.14-6.64-2.14-6.64Z"
            fill="#ffbe9d" />
        <path
            d="M350.12,284.4c0,0,.08,0,.21,0c.18632.004564.367822-.059496.51-.18.393851-.511533.481737-1.195515.23-1.79-.115816-.336373-.303499-.64349-.55-.9-.165748-.217334-.426874-.340437-.7-.33-.177987.009911-.320089.152013-.33.33c0,.13,0,.2,0,.21s-.11,0-.14-.2c-.014517-.105213.010417-.212077.07-.3.073562-.120835.192378-.207247.33-.24.348292-.058874.701807.070368.93.34.290538.277106.510061.620111.64,1c.279074.681589.134446,1.463362-.37,2-.191794.134537-.431512.181754-.66.13-.13.02-.19-.06-.17-.07Z"
            fill="#eb996e" />
        <path
            d="M345.16,311.22c0,0,10.75-18,27.37-2.86c10.85,9.91,28.54,30.33,34.87,38.33c1.42,1.79,3.63,4.51,2.08,6.19-4.74,5.13-17.66,16.61-41.57,8.05l-22.66-31.59c-3.882245-5.405647-3.918356-12.676056-.09-18.12Z"
            fill="#e8505b" />
        <polygon points="358.94,302.64 355.91,297.68 340.43,310 343.32,314.65 358.94,302.64" fill="#e8505b" />
        <g opacity="0.3">
            <path d="M358.28,303.27c0,0-12.19,10.55-12.37,10.37s-4.86-3.56-4.86-3.56l4.29,2.41Z" />
        </g>
        <path
            d="M359.07,302.58c-.280504.098032-.543751.23978-.78.42-.48.3-1.17.75-2,1.33-1.67,1.14-3.92,2.81-6.4,4.65-1.69,1.26-3.29,2.4-4.65,3.35h.2c-1.44-.79-2.65-1.43-3.5-1.86-.436497-.254086-.895021-.468287-1.37-.64.388204.322154.81076.600503,1.26.83.82.5,2,1.19,3.43,2h.1l.1-.06c1.39-.92,3-2,4.69-3.3l6.33-4.77l1.92-1.43c.23833-.153096.46255-.327117.67-.52Z"
            fill="#263238" />
        <path
            d="M293,349.9l-3-1.2c-1.726687-.46681-3.401845-1.10672-5-1.91-.802109-.382874-1.532681-.900363-2.16-1.53-.806755-.754559-1.506567-1.615867-2.08-2.56-.133275-.432102-.539934-.721-.991825-.70461s-.836553.333989-.938175.77461c-.18.91,1,3.47,3.47,5.57s-2.64,2-4.52,2-7.68.31-8.13.88c-.67.85.12,1.72,2,1.67s7.5.2,7.46,1.19-9.6.88-9.6.88-2-.35-2.12.79c-.16,2.06,10,1.42,11,1.33.68-.06.67,1-.06,1.05s-9.52-.32-9.71,1.78c-.14,1.61,8.37-.46,10.15.63s-6.61.91-6.68,2.45c0,.58,0,1,4.86.41s18.05-4.4,18.05-4.4l-2.21-9.2"
            fill="#ffbe9d" />
        <path
            d="M350.42,317.49c0,0-15.81,21.8-19.47,22.65s-44.42,7.26-44.42,7.26l2,13.3c0,0,50.58-1.42,55.49-5.89s19.7-27.2,19.7-27.2Z"
            fill="#ffbe9d" />
        <path
            d="M339.29,354.43c0,0,.11.18.42.36.456668.254486.979236.365967,1.5.32.814151-.051864,1.555805-.485732,2-1.17.559261-.825928.609449-1.895324.13-2.77-.248595-.470028-.666993-.827633-1.17-1-.469441-.150986-.979412-.111481-1.42.11-.373145.197457-.64812.540321-.759841.947439s-.050258.842306.169841,1.202561c.328913.463376.932433.641125,1.46.43.36-.14.44-.37.42-.37s-.15.13-.47.21c-.437203.101712-.892349-.072431-1.15-.44-.298831-.588356-.066529-1.307599.52-1.61.345538-.159791.739132-.18126,1.1-.06.388915.139276.712882.416961.91.78.399884.730815.365298,1.62236-.09,2.32-.357704.588821-.958606.988201-1.64,1.09-.663707.074279-1.33464-.047393-1.93-.35Z"
            fill="#eb996e" />
        <path d="M368.47,324.13l-15,25.75-17.29-14.33c0,0,12-19.61,17.64-25.69Z" fill="#e8505b" />
        <path
            d="M325.44,373.29c2.841976,1.015749,4.825583,3.601872,5.07,6.61-.535734-1.309221-1.205997-2.559261-2-3.73-.919177-1.065318-1.948208-2.030664-3.07-2.88Z"
            fill="#455a64" />
        <path
            d="M343.36,282.44c.219541.409883.620063.691732,1.08.76.45.1.91.09,1.36.18.717175.137023,1.366208.51445,1.84,1.07.185982.25388.397046.488395.63.7.246101.211972.599709.244118.88.08.4-.29.22-.92,0-1.36l-2.79-5.58-5.3,1.15l2.27,2.65"
            fill="#263238" />
        <path
            d="M326,276.11c.62-.74,1.53-1.33,2.25-.7.660976.701587,1.093377,1.587312,1.24,2.54.142837.946007.458057,1.857773.93,2.69.692229,1.025384,1.894549,1.584135,3.124656,1.452114s2.286474-.933188,2.745344-2.082114c.661136,1.134647,1.509825,2.149016,2.51,3c1.019309.852658,2.404088,1.124331,3.67.72.607666-.231294,1.095484-.699241,1.351837-1.296767s.259297-1.273495.008163-1.873233c.682326.559872,1.528162.882763,2.41.92.89653.023924,1.721649-.486864,2.1-1.3.158644-.409038.141226-.865448-.048131-1.261205s-.533824-.695685-.951869-.828795c1.001905.659648,2.30715.631793,3.28-.07.946713-.749164,1.213153-2.072908.63-3.13-.658507-.997736-1.999935-1.274965-3-.62.689061-.34192,1.272962-.86363,1.69-1.51.406929-.684542.199232-1.568356-.47-2-.83-.38-1.73.39-2.63.55-1.48.28-2.69-1.06-3.88-2-2.247703-1.589844-5.063719-2.153047-7.75-1.55-2.65344.627861-5.10146,1.925896-7.11,3.77-1.33,1.17-2.63,2.88-2.09,4.57"
            fill="#263238" />
        <path
            d="M329.18,286.89c0,.43-.42.8-.91,1-.430671.234303-.958552.1952-1.35-.1-.29-.31,0-1,.77-1.35s1.49.02,1.49.45Z"
            fill="#263238" />
        <path
            d="M337.1,283.09c-.08.43-.61.7-1.14,1s-1.1.45-1.48.22c-.194777-.18853-.236026-.485525-.1-.72.403339-.839944,1.356257-1.263463,2.25-1c.37.07.5.29.47.5Z"
            fill="#263238" />
        <path d="M339.4,292.31c.13-.06.47,1,0,2.1s-1.46,1.58-1.51,1.45.62-.69,1-1.66.36-1.87.51-1.89Z" fill="#263238" />
        <path
            d="M350.94,276.33c-.068206.059326-.145974.106663-.23.14-.242375.096217-.499405.150328-.76.16-1.017984.031157-1.961781-.530441-2.42-1.44l.27.06c-.9027.82567-2.076781,1.291745-3.3,1.31-1.513341.054778-2.97487-.55541-4-1.67l.44-.18c.001383.691003-.354029,1.333769-.94,1.7-.569599.383747-1.257927.550507-1.94.47-1.067457-.231927-2.025654-.816709-2.72-1.66-.7-.75-1.25-1.53-1.89-2.14-.555364-.609029-1.285308-1.031628-2.09-1.21-.709634-.113256-1.436788-.02669-2.1.25-.973825.443462-1.845412,1.083534-2.56,1.88-.262952.303294-.550604.584256-.86.84.191678-.363095.430403-.699327.71-1c.684249-.882787,1.563979-1.594787,2.57-2.08.723005-.32729,1.523355-.445091,2.31-.34.900444.177527,1.724418.62792,2.36,1.29.68.65,1.25,1.43,1.92,2.14.614019.752297,1.462597,1.276936,2.41,1.49c1.1.15,2.37-.63,2.32-1.63l-.05-.73.49.56c1.77298,1.896886,4.714816,2.089506,6.72.44l.17-.16.1.21c.39519.815233,1.204973,1.348692,2.11,1.39.322057-.001044.643361-.031166.96-.09Z"
            fill="#455a64" />
        <path
            d="M371,320.15c-.05,0-.05-.6-.23-1.65-.268454-1.477717-.825758-2.887968-1.64-4.15-1.172929-1.884082-2.897824-3.361067-4.94-4.23-2.513351-1.043197-5.3191-1.142642-7.9-.28-1.318327.454622-2.549349,1.131008-3.64,2-1.027109.816029-1.965599,1.73776-2.8,2.75-1.393057,1.750989-2.659596,3.599001-3.79,5.53-1,1.63-1.83,3-2.43,3.85-.3.45-.55.78-.71,1-.075924.12366-.170354.234953-.28.33.237953-.502504.512004-.987106.82-1.45.58-1,1.35-2.33,2.28-3.93c1.100025-1.978684,2.353887-3.867836,3.75-5.65c1.707292-2.249716,4.006136-3.980773,6.64-5c2.696588-.905893,5.631683-.792047,8.25.32c3.569253,1.598096,6.060857,4.925276,6.59,8.8.051876.414577.075264.832223.07,1.25.019542.170991.005961.344146-.04.51Z"
            fill="#263238" />
        <path
            d="M366.57,329.57c-.019428-.317727-.167476-.613821-.41-.82-.28616-.226777-.635451-.359508-1-.38-.531237-.01323-1.057322-.107656-1.56-.28-1.238169-.704835-2.096454-1.92624-2.34-3.33-.21-.74-.37-1.52-.65-2.26-.239099-.770446-.710648-1.44808-1.35-1.94-.675098-.448822-1.452306-.720501-2.26-.79-.779041-.054714-1.560959-.054714-2.34,0-1.362836.151897-2.741709-.054934-4-.6-.857322-.427134-1.498483-1.191456-1.77-2.11-.040709-.251698-.040709-.508302,0-.76c0-.17.06-.25.08-.25.032753.33696.089564.671146.17,1c.320902.812458.944744,1.468567,1.74,1.83c1.225541.469468,2.549227.624185,3.85.45c1.48-.06,3.34-.2,4.93.89.716425.555321,1.246636,1.315755,1.52,2.18.29.8.44,1.59.63,2.31.186349,1.279453.915207,2.416472,2,3.12.468566.178644.960152.289756,1.46.33.411772.054888.796235.236634,1.1.52.199488.179588.318404.431834.33.7-.07.11-.12.19-.13.19Z"
            fill="#fafafa" />
        <path
            d="M360.6,338.12c-.06,0-.08-.33-.43-.8-.520703-.616286-1.219303-1.056404-2-1.26-1-.33-2.28-.3-3.69-.75-.760965-.236127-1.426635-.709103-1.9-1.35-.47-.67-.73-1.45-1.16-2.08-.88-1.28-2.47-1.71-3.8-2-1.265179-.206757-2.475851-.66586-3.56-1.35-.728046-.511447-1.235401-1.279626-1.42-2.15-.081174-.316632-.052983-.651402.08-.95.023327.301988.063389.60245.12.9.241826.780043.747358,1.451729,1.43,1.9c1.069211.606651,2.242919,1.006933,3.46,1.18.743782.15074,1.470703.375181,2.17.67.77949.323836,1.454328.856784,1.95,1.54.48.73.73,1.49,1.15,2.08.400145.566997.976852.985461,1.64,1.19c1.28.46,2.6.47,3.64.86.853919.238944,1.597026.769734,2.1,1.5.12068.203981.205254.427257.25.66.001215.071149-.008912.142037-.03.21Z"
            fill="#fafafa" />
        <path
            d="M388.2,324.57c.019966.139288.019966.280712,0,.42-.09022.393116-.238515.770595-.44,1.12-.816558,1.245958-1.991523,2.215217-3.37,2.78-.84.4-1.79.75-2.76,1.18-1.045195.419925-1.999364,1.037927-2.81,1.82-1.7,1.68-2.54,4.28-3.73,6.82-.545891,1.290577-1.333343,2.464966-2.32,3.46-.24258.237748-.50709.452035-.79.64-.262778.204889-.547931.379336-.85.52-.579083.282526-1.190177.494058-1.82.63-2.43.52-4.64.39-6.37.94-1.391986.333589-2.595949,1.203318-3.35,2.42-.245446.46402-.417488.96328-.51,1.48s0-.15,0-.42c.036375-.402006.151927-.792844.34-1.15.726339-1.324792,1.961379-2.296213,3.42-2.69c1.79-.61,4.05-.52,6.37-1.05.587463-.135309,1.15775-.336587,1.7-.6.277979-.138446.542455-.302488.79-.49.261729-.176507.506153-.377404.73-.6.930345-.958896,1.676118-2.080947,2.2-3.31c1.18-2.49,2-5.16,3.86-6.94.866544-.815529,1.88621-1.451121,3-1.87c1-.43,2-.75,2.79-1.12c1.338482-.515451,2.501093-1.403894,3.35-2.56.242593-.453984.433776-.933617.57-1.43Z"
            fill="#fafafa" />
        <path
            d="M398.27,336.94c-.073448.565238-.290329,1.102275-.63,1.56-.929129,1.251019-2.195107,2.211774-3.65,2.77-1.78.81-4.1,1.19-6.3,2.38-1.132527.606703-2.066399,1.526689-2.69,2.65-.629481,1.273735-1.193548,2.578766-1.69,3.91-1.111644,2.614067-3.041661,4.79674-5.5,6.22-3.386458,1.932315-7.468995,2.215774-11.09.77-.385608-.157202-.75984-.340977-1.12-.55q-.37-.21-.36-.24c0,0,.55.24,1.56.6c1.4213.493222,2.915557.743392,4.42.74c2.234392-.000151,4.427634-.601134,6.35-1.74c2.352477-1.385723,4.19934-3.488414,5.27-6c.491783-1.366942,1.066174-2.702737,1.72-4c.683354-1.20962,1.705213-2.193247,2.94-2.83c2.32-1.21,4.64-1.54,6.38-2.29c1.415047-.507441,2.668437-1.384469,3.63-2.54.303672-.441076.558502-.913852.76-1.41Z"
            fill="#fafafa" />
        <path
            d="M407.35,346.72c-1.430456.642228-2.774359,1.462009-4,2.44-1.292372,1.100977-2.367509,2.433877-3.17,3.93-.45.84-.78,1.8-1.19,2.79-.394249,1.07576-1.088264,2.016149-2,2.71-.974345.585885-2.075298.928861-3.21,1-1.07.12-2.08.15-3,.31-1.68321.268296-3.317531.783865-4.85,1.53-1.409931.723411-2.749099,1.57713-4,2.55.251318-.350777.55483-.661034.9-.92.888616-.777958,1.865265-1.449195,2.91-2c1.548535-.813135,3.215718-1.376737,4.94-1.67c1-.18,2-.22,3-.35c1.059702-.06716,2.088127-.385972,3-.93.835826-.637664,1.470991-1.501904,1.83-2.49.364794-.954083.77868-1.888664,1.24-2.8.844121-1.542642,1.986214-2.902277,3.36-4c.913656-.728079,1.923116-1.327025,3-1.78.38-.15.69-.25.9-.31s.33-.03.34-.01Z"
            fill="#fafafa" />
        <path
            d="M367.2,328.2c.853511-.312896,1.630708-.803757,2.28-1.44.680513-.710489,1.223058-1.541261,1.6-2.45.450685-1.132404.808531-2.299584,1.07-3.49.27546-1.220569.674172-2.410005,1.19-3.55.447132-.939952,1.087785-1.774846,1.88-2.45.527661-.471263,1.157531-.813583,1.84-1c.243844-.085568.50575-.106245.76-.06-.872578.254791-1.67833.698637-2.36,1.3-.707175.680699-1.280417,1.487986-1.69,2.38-.475377,1.123713-.846926,2.28857-1.11,3.48-.27612,1.21746-.657556,2.408611-1.14,3.56-.424203.947538-1.028777,1.803452-1.78,2.52-.508959.48398-1.120939.846382-1.79,1.06-.47.18-.75.17-.75.14Z"
            fill="#fafafa" />
        <path
            d="M364.33,310.24c.125028-1.089098.631628-2.098755,1.43-2.85.675271-.866844,1.641426-1.460034,2.72-1.67.06.14-1.2.77-2.33,2s-1.67,2.58-1.82,2.52Z"
            fill="#fafafa" />
        <path
            d="M357.32,300c-.452708.831429-.97809,1.621175-1.57,2.36-.53.69-1.08,1.56-1.88,2.44-.425856.474683-.942754.858956-1.52,1.13-.638012.242188-1.318003.354387-2,.33-.63251-.045675-1.26749-.045675-1.9,0-1.564694.212206-2.905986,1.223859-3.54,2.67-.32542.857418-.461862,1.774994-.4,2.69s-.15-.24-.21-.74c-.210702-2.517903,1.578601-4.763303,4.08-5.12.664135-.071352,1.332782-.091411,2-.06.615562.037253,1.232109-.054718,1.81-.27.515431-.244311.980208-.583564,1.37-1c.77-.81,1.38-1.67,1.94-2.34.542062-.750393,1.151237-1.44994,1.82-2.09Z"
            fill="#fafafa" />
        <g opacity="0.2">
            <polygon points="370.6,323.38 363.01,354.13 356.37,344.88 370.6,323.38" />
        </g>
        <path d="M403.52,424.61c-.14,0-.26-5.11-.26-11.42s.12-11.41.26-11.41.26,5.11.26,11.41-.12,11.42-.26,11.42Z"
            fill="#455a64" />
    </g>
    <g>
        <path
            d="M65.42,367.94c3.040873.237193,5.853806,1.70324,7.79,4.06c1.904655,2.352298,3.245569,5.10938,3.92,8.06c1.46,5.65.47,12.29-1.18,17.88-6.08-2.23-9.79-8.77-11.46-12.2-2.64-5.43-4.12-16.84.93-17.81"
            fill="#e8505b" />
        <path
            d="M84.67,404.85c-1.847029-2.90231-1.988405-6.574266-.37-9.61c1.650061-2.977113,4.422844-5.170133,7.7-6.09c1.46676-.5851,3.116894-.493629,4.51.25c1.177684.91094,1.770628,2.387562,1.55,3.86-.245759,1.443063-.862618,2.797396-1.79,3.93-3,4-6.64,7.29-11.61,7.66"
            fill="#e8505b" />
        <path
            d="M85.18,423.68c-.125633-.380911-.216013-.772556-.27-1.17-.15-.83-.36-1.92-.6-3.21-.773658-3.541987-.966171-7.186215-.57-10.79.445491-3.637116,1.853995-7.089333,4.08-10c.684827-.86376,1.470394-1.642612,2.34-2.32.234119-.185918.477784-.359488.73-.52q.26-.16.27-.15c-1.132544.954869-2.170654,2.01642-3.1,3.17-2.109922,2.898125-3.451622,6.283336-3.9,9.84-.385025,3.562469-.233337,7.162546.45,10.68.2,1.36.37,2.47.46,3.24.070919.406213.107714.817649.11,1.23Z"
            fill="#263238" />
        <path
            d="M69.75,382c.082132.130105.152414.267323.21.41l.53,1.21c.46,1.05,1.1,2.58,1.88,4.48c1.56,3.79,3.64,9.06,5.82,14.94s4,11.24,5.29,15.14c.65,1.95,1.15,3.53,1.49,4.63.15.52.28.94.38,1.27.048486.146862.085267.297332.11.45-.077242-.135491-.137687-.279888-.18-.43-.12-.32-.26-.73-.45-1.24l-1.59-4.59c-1.35-3.88-3.23-9.23-5.4-15.1s-4.21-11.15-5.71-15c-.73-1.88-1.33-3.41-1.77-4.53l-.47-1.23c-.057494-.132727-.104309-.269828-.14-.41Z"
            fill="#263238" />
        <path
            d="M78,411.17c-3.654403-6.242881-10.096441-10.338974-17.3-11-1.8-.14-4,.14-4.79,1.75s.24,3.55,1.46,4.89c5.296637,5.634994,13.46392,7.528857,20.7,4.8"
            fill="#e8505b" />
        <path
            d="M63.45,405.06c.377392-.021039.755941-.004289,1.13.05.439559.031563.876944.088323,1.31.17.51.1,1.1.16,1.73.34.677095.159415,1.344794.356386,2,.59.777365.2501,1.538775.547317,2.28.89c4.227069,1.858616,7.785766,4.963753,10.2,8.9.370407.602787.70434,1.227241,1,1.87.264188.524104.501169,1.061484.71,1.61.169316.408345.316201.825633.44,1.25.132368.355609.226237.724382.28,1.1-.09,0-.51-1.53-1.69-3.82-.319083-.625978-.67297-1.233596-1.06-1.82-.429289-.692065-.896675-1.35976-1.4-2-1.157321-1.435603-2.46848-2.740056-3.91-3.89-1.46258-1.120353-3.03772-2.085546-4.7-2.88-.729421-.344164-1.477217-.647956-2.24-.91-.655579-.243702-1.323104-.453972-2-.63-2.48-.63-4.09-.73-4.08-.82Z"
            fill="#263238" />
    </g>
</svg>